<svg id="Layer_1" data-name="Layer 1" xmlns="http://www.w3.org/2000/svg" viewBox="0 0 791.08 843.8"><defs><style>.cls-1{fill:#eeb569;}.cls-2{fill:#410000;}.cls-3{fill:#fff;}.cls-4{fill:#ff8a9f;}</style></defs><title>登入狗</title><path class="cls-1" d="M663.55,658.71c21-43.25,47.13-118.26,30.17-201.52-1.82-8.92-3.64-17.79-5.52-26.57,3.44-1.51,14.9-5.82,27.48-2.65l-8.58-16,22-2.91L718.38,394.9C795,277,772.67,87.52,693.16,98.45,623,108.09,580.39,207,561.78,221.54,529,204.87,487.18,194,433,190.59a371.89,371.89,0,0,0-72.46,2.2C351.32,176.22,331.6,61.23,268.92,24.4,199.73-16.27,123.07,152.84,148.5,291.12l-15.36,9,19.2,11.15-14.06,11.45a40.5,40.5,0,0,1,23.66,12.18C148.05,360,114.72,429,115.34,511.34c.42,56,21,101.6,38.78,130.65"/><path class="cls-2" d="M663.55,668.22A9.51,9.51,0,0,1,655,654.56c22.25-45.78,45.41-116.86,29.4-195.48-1.62-7.95-3.54-17.32-5.5-26.47a9.49,9.49,0,0,1,5.48-10.69,55.94,55.94,0,0,1,15-4.15l-.7-1.3a9.5,9.5,0,0,1,7.12-13.9l5.83-.78-.88-1.16a9.51,9.51,0,0,1-.39-10.91c25.53-39.26,41.53-89.8,45.05-142.32,3.19-47.57-4.62-91.29-20.9-116.94-10.89-17.16-24.38-24.76-40.11-22.6-46.87,6.45-81.4,57.9-104.24,91.94-9.48,14.13-16.33,24.34-22.58,29.22a9.5,9.5,0,0,1-10.16,1c-33.37-17-74.27-26.76-125-29.93a364.36,364.36,0,0,0-70.61,2.14,9.52,9.52,0,0,1-9.56-4.8c-2.56-4.59-5.08-13-8.9-25.71-11.8-39.28-33.76-112.39-79.24-139.11-12.7-7.46-25.63-6.36-39.55,3.38-22.82,16-44.41,53.42-57.76,100.17-14.57,51-17.75,105.45-9,153.26a9.49,9.49,0,0,1-4.55,9.92l-1.26.74,5.08,2.95a9.5,9.5,0,0,1,1.23,15.58l-1,.78a45.52,45.52,0,0,1,11.81,9.34,9.5,9.5,0,0,1,1.07,10.74c-13.86,25.08-46,92-45.42,171.81.41,54.23,20.55,98.32,37.38,125.77A9.5,9.5,0,0,1,146,647c-18.08-29.5-39.74-77-40.18-135.55-.59-77.82,28.23-143.89,44.13-174.33a32.28,32.28,0,0,0-13.09-5,9.5,9.5,0,0,1-4.6-16.76l3.41-2.78-7.32-4.25a9.5,9.5,0,0,1,0-16.42l9.66-5.64c-7.86-49-4.18-103.85,10.51-155.31S187,39.07,213.67,20.41c20.07-14,40.84-15.5,60.07-4.2,51.9,30.5,75.26,108.25,87.81,150,1.83,6.09,3.6,12,5.05,16.24a389.47,389.47,0,0,1,67-1.37c50.32,3.14,91.7,12.6,126.19,28.87,3.94-4.83,9.18-12.63,14.64-20.76,12.05-18,27.05-40.31,46.08-59.74,23.32-23.82,46.66-37,71.35-40.44C715,85.87,735.81,97,750.6,120.28c18.64,29.37,27.32,76.17,23.82,128.39-3.57,53.22-19.32,104.68-44.5,145.74l6.76,8.93a9.5,9.5,0,0,1-6.33,15.15L722,419.6l2.08,3.87a9.5,9.5,0,0,1-10.7,13.71,31.75,31.75,0,0,0-14.08-.13c1.34,6.41,2.63,12.67,3.76,18.24,7.8,38.28,7.51,78.51-.84,119.56a371.19,371.19,0,0,1-30.09,88A9.5,9.5,0,0,1,663.55,668.22Z"/><path class="cls-3" d="M194.38,286.6s51.2-58.92,108-77.9c31.14-10.4-20.76-126.6-51-147.33C208.91,32.2,152.4,298.82,194.38,286.6Z"/><path class="cls-3" d="M673.79,378.56s-21.87-78.48-65.2-124.14c-14.29-15.07,46.3-106.31,82.47-112.21C741.94,133.9,706.57,407.5,673.79,378.56Z"/><path class="cls-3" d="M125.64,817.34s3.44-32.77-6.52-77.65,8.2-69.68,8.2-69.68H106.85c7.07-21.39,28.25-47.41,28.25-47.41l-14.92-6.72c18.36-34.52,50.88-54.13,50.88-54.13l496.81,54.13s22.83,12.52,31.31,31.52l-10.42,1a361.43,361.43,0,0,1,10.42,35.76h-22s17,13.52,11.55,55.49a390.69,390.69,0,0,0-2.43,75.85"/><path class="cls-2" d="M125.65,826.84a8.51,8.51,0,0,1-1-.06,9.49,9.49,0,0,1-8.46-10.42h0c0-.32,3.12-32-6.34-74.61-6.24-28.11-2.24-49.23,2.39-62.24h-5.39a9.51,9.51,0,0,1-9-12.48c4.82-14.57,15.32-30.65,22.51-40.66l-4.06-1.83a9.49,9.49,0,0,1-4.48-13.12c19.37-36.42,52.94-56.95,54.36-57.8a9.41,9.41,0,0,1,5.93-1.31L668.9,606.43a9.59,9.59,0,0,1,3.54,1.12c1,.57,25.75,14.31,35.41,36a9.51,9.51,0,0,1-6.39,13.09c1.92,6.23,4.39,14.83,6.95,25.32a9.51,9.51,0,0,1-9.23,11.76h-4.9c3.94,10.1,6.74,25.3,3.91,47.21a384.88,384.88,0,0,0-2.4,73.8,9.5,9.5,0,0,1-18.92,1.67,396.45,396.45,0,0,1,2.47-77.9c4.34-33.54-7-45.8-8.16-46.94a9.17,9.17,0,0,1-3.24-10.39,9.63,9.63,0,0,1,9.27-6.45h9.7c-3.91-14.34-7-22.87-7.06-23a9.51,9.51,0,0,1,3.6-11.16,84.64,84.64,0,0,0-18.64-15.47l-491.4-53.54c-6.79,4.64-25.71,18.68-39.65,40l5.25,2.37a9.5,9.5,0,0,1,3.46,14.66c-.16.19-12.75,15.77-21.16,31.91h6A9.5,9.5,0,0,1,135,675.62c-.59.83-15.38,22.4-6.59,62,10.17,45.86,6.84,79.29,6.69,80.69A9.51,9.51,0,0,1,125.65,826.84Z"/><path class="cls-3" d="M180,677,641.46,697.4s34.8-48.61,50.35-119.43c11.35-155.18-75.07-177.28-75.07-177.28S600.88,304.6,524.31,312c-73.18,7.07-92,81.37-93.3,87.93,1.82-9.86,34.53-172.56,12.91-175.53-18-2.47-41.19,124.76-49.54,168.8,2.43-24-.7-81.55-47.84-107.12-67.62-36.68-118.71,47.6-118.71,47.6S153.14,304.74,118,472.57l-.81,2.29a316.6,316.6,0,0,0-1.88,36.48C116.09,610.63,180,677,180,677Z"/><path class="cls-2" d="M386.6,539.09s16,33.39,62.43,29,46.46-63.88,85.66-61,14.52,151-148.09,107.44c0,0-106.56,17.42-135.31-63.88s9-101.63,26.42-55.17S335.79,581.19,386.6,539.09Z"/><path class="cls-2" d="M442.44,631.56c-17.47,0-36.42-2.64-56.37-7.85-15.3,2-114.34,11.69-143.23-70-13.17-37.27-14.59-67.33-3.88-82.47,4.16-5.89,10-9.13,16.51-9.13,12.25,0,23.41,11,30.63,30.3,10.1,26.92,30.6,55.68,57.88,55.68h0c11.77,0,24.18-5.34,36.9-15.88a9,9,0,0,1,13.8,3c.46.93,12.48,24.33,46.15,24.33,2.39,0,4.86-.12,7.36-.35,19.43-1.82,29.17-15.53,39.48-30s22.09-31.08,44.28-31.08c1.11,0,2.25,0,3.39.13,15.51,1.14,25.38,16.5,24.58,38.2C558.57,573.2,525.47,631.56,442.44,631.56ZM386.6,605.63a9.12,9.12,0,0,1,2.32.3c19.09,5.12,37.1,7.71,53.52,7.71,70.45,0,98.47-47.77,99.59-77.88.35-9.46-2.29-19.25-8-19.68-13.58-1-20.81,8.08-31.74,23.47-11.06,15.55-24.81,34.91-52.42,37.5-3.05.28-6.09.43-9,.43-30.75,0-48.17-15.27-56.39-25.51-13.45,9.31-27,14-40.46,14h0c-30.94,0-58.85-25.17-74.65-67.31C264,484.57,257.71,480,255.47,480c-.7,0-1.55,1.08-1.88,1.55-4.27,6-7.78,26.77,6.15,66.16C278,599.47,332.17,607.2,362.81,607.2a155,155,0,0,0,22.36-1.46A9.73,9.73,0,0,1,386.6,605.63Z"/><path class="cls-2" d="M641.46,706.9a9.5,9.5,0,0,1-7.72-15c.19-.26,19.37-27.38,35.1-69.62,14.39-38.65,28.78-98.33,15.57-163.17-3-15-5.66-27.54-8.45-39.92A9.5,9.5,0,0,1,694.5,415c2.82,12.53,5.45,25.17,8.53,40.3,14.15,69.47-1.22,133.05-16.6,174.16C669.8,673.9,650,701.77,649.19,702.93A9.51,9.51,0,0,1,641.46,706.9Z"/><path class="cls-2" d="M180,686.52a9.52,9.52,0,0,1-6.85-2.91c-.69-.72-17-17.84-33.51-47.59-15.2-27.44-33.4-71.32-33.8-124.61-.42-55.21,14.26-104.36,26.65-135.86,13.43-34.16,26.87-55.16,27.43-56a9.5,9.5,0,0,1,16,10.29c-.52.8-51.8,81.74-51,181.45.71,94.42,61.39,158.53,62,159.17A9.51,9.51,0,0,1,180,686.52Z"/><path class="cls-4" d="M359,722c70.3,13,94.14-44.51,102.18-100.55a394.91,394.91,0,0,0,4-57.7A47.75,47.75,0,0,1,449,568.13c-46.46,4.35-62.43-29-62.43-29-31.73,26.31-59.52,20.88-80.17,1.74h0a364.17,364.17,0,0,0-12.74,59.76v0C286.86,654.43,291,709.51,359,722Z"/><path class="cls-2" d="M378.15,732.83h0a114.64,114.64,0,0,1-20.75-2c-78-14.35-78.87-81.64-72.65-131.12l0-.24a368.94,368.94,0,0,1,13.11-61.4,9,9,0,0,1,14.64-3.81c9.89,9.17,20.48,13.81,31.47,13.81,11.77,0,24.19-5.34,36.9-15.88a9,9,0,0,1,13.8,3c.46.93,12.48,24.33,46.15,24.33h0c2.39,0,4.86-.12,7.36-.35a38.61,38.61,0,0,0,13.16-3.53,9,9,0,0,1,12.8,7.9,399,399,0,0,1-4.09,59.16c-4.47,31.11-12.81,56-24.81,73.9C429.19,720.65,406.61,732.83,378.15,732.83ZM302.57,601.51l0,.23c-8.83,70,8,102.25,58.1,111.47a96.89,96.89,0,0,0,17.5,1.7h0c22.42,0,39.5-9.24,52.22-28.24,10.49-15.67,17.88-38,22-66.47a405.86,405.86,0,0,0,3.78-44.07,60.28,60.28,0,0,1-6.23.92c-3.06.28-6.09.43-9,.43-30.75,0-48.17-15.27-56.39-25.51-13.45,9.31-27,14-40.45,14a60.1,60.1,0,0,1-32.59-10A371.54,371.54,0,0,0,302.57,601.51Z"/><path class="cls-2" d="M372.09,670a9,9,0,0,1-8.94-8.52c-1.46-29.47,5.91-89.35,6.23-91.88a9,9,0,1,1,17.78,2.21c-.07.6-7.5,60.86-6.11,88.78a9,9,0,0,1-8.51,9.39Z"/><path class="cls-2" d="M336.56,455c-1.4,19.9,21.22,65,52.88,67.22S449.81,483,451.21,463.1,428.08,425.26,396.42,423,338,435.13,336.56,455Z"/><circle class="cls-2" cx="525.46" cy="387.59" r="38.88" transform="translate(-74.1 129.01) rotate(-13.08)"/><circle class="cls-3" cx="542.06" cy="380.71" r="13.92"/><circle class="cls-2" cx="525.46" cy="387.59" r="38.88" transform="translate(-74.1 129.01) rotate(-13.08)"/><circle class="cls-3" cx="542.06" cy="380.71" r="13.92"/><circle class="cls-2" cx="312.01" cy="357.52" r="38.88" transform="translate(-72.83 79.91) rotate(-13.08)"/><circle class="cls-3" cx="328.61" cy="350.64" r="13.92"/><path class="cls-2" d="M765.67,826H22.1a10,10,0,0,1,0-20H765.67a10,10,0,1,1,0,20Z"/><path class="cls-3" d="M594.65,809.77,582.15,815s-42.61,28.41-70.46-5.68.57-109.1,75.58-115.35,118.19,23.54,125,114.44"/><path class="cls-2" d="M546.45,835c-14.36,0-29.47-5.08-41.7-20.06-14.34-17.56-16.52-44.32-5.69-69.85,14.56-34.28,47.25-56.74,87.46-60.09,41.56-3.46,72.47,4,94.49,22.78,23.51,20.06,36.66,52.74,40.2,99.92a9,9,0,0,1-17.87,1.34c-3.16-42.17-14.27-70.83-34-87.63-18.2-15.53-44.82-21.6-81.37-18.56-33.46,2.79-60.55,21.2-72.45,49.24-8.23,19.39-7,39.12,3.07,51.52,22.29,27.29,57.1,4.85,58.57,3.88a8.73,8.73,0,0,1,1.51-.8l12.5-5.21A9,9,0,0,1,598.1,818l-11.73,4.89C577.21,828.83,562.28,835,546.45,835Z"/><path class="cls-3" d="M552.61,782.59s-2.85,46.59,36.36,45.46,39.78-32.39,40.35-37.51"/><path class="cls-2" d="M587.55,837c-12.26,0-22.33-4-29.93-11.83-15.43-15.93-14-42.05-14-43.16a9,9,0,0,1,17.89,1.07h0c0,.19-.95,19.47,9,29.67,4.36,4.47,10.3,6.52,18.18,6.31,26.15-.76,30.55-16.52,31.59-28.31,0-.49.08-.9.11-1.23a9,9,0,0,1,17.81,2c0,.22,0,.49-.07.81-3.31,37.72-32.07,44.17-48.92,44.66Z"/><path class="cls-3" d="M678.66,787.75s-1.33,43.14-44.44,38c-33.5-4-24.54-49.95-24.54-49.95"/><path class="cls-2" d="M641.14,835.16a66.84,66.84,0,0,1-8-.49c-10.47-1.24-19-6.07-24.81-14-12.69-17.4-8-43.66-7.46-46.59a9,9,0,1,1,17.58,3.42c-1.11,5.88-2.52,23.23,4.38,32.64,2.83,3.86,6.89,6.05,12.42,6.71,10.17,1.2,18.19-.66,23.86-5.55,9.83-8.46,10.57-23.7,10.57-23.85a9,9,0,0,1,8.95-8.69h.28a9,9,0,0,1,8.68,9.23c0,.94-.89,23.19-16.79,36.88C662.91,831.73,653,835.16,641.14,835.16Z"/><path class="cls-3" d="M199.82,809.77l12.5,5.21s42.61,28.41,70.46-5.68S282.21,700.2,207.2,694,89,717.49,82.19,808.39"/><path class="cls-2" d="M248,835c-15.84,0-30.76-6.19-39.92-12.09L196.37,818a9,9,0,0,1,6.89-16.54l12.5,5.21a8.6,8.6,0,0,1,1.53.81c1.44,1,36.26,23.4,58.55-3.89,10.12-12.4,11.3-32.14,3.07-51.52-11.9-28-39-46.45-72.45-49.24-36.55-3-63.17,3-81.37,18.56-19.69,16.8-30.8,45.46-34,87.63a9,9,0,0,1-17.87-1.34c3.54-47.18,16.69-79.86,40.2-99.92C135.48,689,166.39,681.56,208,685c40.21,3.35,72.9,25.81,87.45,60.09,10.84,25.53,8.66,52.29-5.69,69.85C277.49,829.93,262.38,835,248,835Z"/><path class="cls-3" d="M241.86,782.59s2.84,46.59-36.36,45.46-39.78-32.39-40.35-37.51"/><path class="cls-2" d="M206.92,837l-1.68,0c-16.85-.49-45.61-6.94-48.92-44.66,0-.32,0-.59-.07-.81a9,9,0,1,1,17.81-2c0,.32.07.73.11,1.22,1,11.79,5.43,27.55,31.59,28.31,7.9.21,13.86-1.85,18.22-6.36,9.83-10.15,9-29.41,8.94-29.6A9,9,0,0,1,250.81,782c.06,1.11,1.47,27.23-14,43.16C229.25,833.05,219.18,837,206.92,837Z"/><path class="cls-3" d="M115.81,787.75s1.33,43.14,44.44,38c33.5-4,24.54-49.95,24.54-49.95"/><path class="cls-2" d="M153.33,835.16c-11.81,0-21.77-3.43-29.68-10.25C107.75,811.22,106.89,789,106.86,788a9,9,0,0,1,17.91-.59c0,.36.8,15.56,10.65,24,5.66,4.84,13.66,6.67,23.77,5.48,5.54-.66,9.61-2.85,12.43-6.71,6.89-9.41,5.49-26.76,4.37-32.66a9,9,0,0,1,17.59-3.4c.57,2.93,5.23,29.19-7.46,46.59-5.76,7.9-14.34,12.73-24.82,14A66.68,66.68,0,0,1,153.33,835.16Z"/></svg>