<svg id="Layer_1" data-name="Layer 1" xmlns="http://www.w3.org/2000/svg" viewBox="0 0 307.94 461.85"><defs><style>.cls-1,.cls-4{fill:#fff;}.cls-2{fill:#fde0da;}.cls-3{fill:#eeb569;}.cls-4,.cls-5{stroke:#fff;stroke-width:0.55px;}.cls-4,.cls-5,.cls-8{stroke-linecap:round;stroke-miterlimit:10;}.cls-5,.cls-8{fill:none;}.cls-6{fill:#fddcda;}.cls-7{fill:#f2e8da;}.cls-8{stroke:#f2e8da;stroke-width:0.19px;}</style></defs><title>純字</title><path d="M176.18,48.59a95.4,95.4,0,0,1,10.65-6.45,45.84,45.84,0,0,1,20.16-5,31.44,31.44,0,0,1,13,2.58,18.67,18.67,0,0,1,8.55,7.06q3.33,5.36,3.32,19.68l-.13,10.11L231.55,90l.55,23.14H197.21l.28-41.94-.41-21.45q-.68-3.52-5-3.52a16.45,16.45,0,0,0-7.13,1.93A46.54,46.54,0,0,0,176.18,54l-.14,17,.23,29.53.18,12.55H141.56l.14-28.64V51.85l-.2-28.23.06-3.13h34.62V22.4l.06,11.6-.06,7.19Z"/><path d="M267.25,75.53H263a42.47,42.47,0,0,0-2.92-10.22q-1.63-3.31-9.84-15.77-5.1-7.66-5.09-14.63,0-7.86,5.28-12.19,6-5,15.45-5,9.69,0,15.58,5.62A15.22,15.22,0,0,1,286.39,35a20.18,20.18,0,0,1-1.32,7.34,46.56,46.56,0,0,1-4.7,8.5q-6.5,9.61-8.93,14.15A54.93,54.93,0,0,0,267.25,75.53ZM265,85q9.09,0,14.9,4.28a13.41,13.41,0,0,1,.4,21.8q-5.38,4.11-14.15,4.12-9.09,0-14.86-4.19t-5.77-10.78a13.24,13.24,0,0,1,5.57-11.08Q256.46,85,265,85Z"/><path d="M175.43,204a38.82,38.82,0,0,1,20.7,6,36.37,36.37,0,0,1,13.77,15.21,39.86,39.86,0,0,1,4.21,18,37,37,0,0,1-2.47,13.1A39.88,39.88,0,0,1,204.88,268a37.62,37.62,0,0,1-14.59,10.52,38.25,38.25,0,0,1-14.73,2.92,37.8,37.8,0,0,1-23.07-7.6,37.15,37.15,0,0,1-12.15-15,39.73,39.73,0,0,1-3.46-16.36,36.21,36.21,0,0,1,12.22-28A39.11,39.11,0,0,1,175.43,204Zm-2,4.35-.2,68.47c1.4.09,2.37.14,2.92.14a34,34,0,0,0,18-5.3,32.65,32.65,0,0,0,12.42-13.72,34.14,34.14,0,0,0,3.25-15q0-16.36-12.08-26.56-9.76-8.22-21.24-8.22C176,208.18,174.91,208.23,173.46,208.32Z"/><path d="M190.23,401.5v-8.28q-.06-8.61-.27-10.58a7.84,7.84,0,0,0-1.22-3.53q-2.44-3.81-11.42-3.8-13.87,0-21.41,8.68c-2,2.36-3.76,3.53-5.17,3.53a3.86,3.86,0,0,1-2.72-1.08,3.38,3.38,0,0,1-1.15-2.52q0-4.28,10.11-8.82,9.63-4.34,24.91-4.34,25.1,0,35.42,7.6a15.51,15.51,0,0,1,5.84,7.47q1.35,4.13,1.35,14.59v26.94a54.2,54.2,0,0,0,.45,11.23,25.94,25.94,0,0,0,3.22,8.11h-38v-7.13A53.87,53.87,0,0,1,177.78,446a36.13,36.13,0,0,1-12.11,2.17,29.22,29.22,0,0,1-18-5.9q-10.25-7.74-10.25-20.09a21.63,21.63,0,0,1,8.29-17.64q9.66-7.95,23.92-7.94A45.56,45.56,0,0,1,180,397.67,51.27,51.27,0,0,1,190.23,401.5Zm0,4.89q-8.55-4.27-13.23-4.28c-2.63,0-4.34,1-5.16,3.12q-.68,1.71-.68,9.85v16.21a46.19,46.19,0,0,0,.34,6.52q.67,3.12,4.62,3.12a16.13,16.13,0,0,0,6.95-1.86,27.66,27.66,0,0,0,7-4.93Z"/><path d="M277.3,348.7l-.74,21.92-.07,2.11q5.91,0,10.72-.48c.54,0,1-.07,1.43-.07,2,0,3,.92,3,2.75s-1,2.55-3.12,2.55c-.63,0-1.42-.05-2.37-.14q-5.37-.4-7.67-.41h-2l-.07,13.15.23,26.37.18,14.1a21.87,21.87,0,0,0,.75,6.92,2.65,2.65,0,0,0,2.59,2q2.46,0,5.26-2.85a20.46,20.46,0,0,0,4.29-7q1.42-3.94,3.4-3.94c1.53,0,2.3.86,2.3,2.58s-.77,3.86-2.3,6.41a28,28,0,0,1-5.57,6.69q-8,7-20.77,7-12,0-18.59-7.26a20,20,0,0,1-4.68-8.17,47.48,47.48,0,0,1-1.29-12.51v-5.08l.07-14.31V376.73c-.64,0-1.09-.07-1.36-.07-.45,0-1.36,0-2.72.14-1.13.09-2.08.13-2.85.13-2.21,0-3.32-.84-3.32-2.54s1.06-2.48,3.19-2.48c1,0,1.69,0,2.1.07l5,.34v-7.67A215.2,215.2,0,0,0,277.3,348.7Z"/><path d="M66.15,293c-2.1-.05-4.5-.18-7.21-.37s-5.52-.53-8.41-1-5.78-1-8.66-1.67a42.3,42.3,0,0,1-8-2.63Q23.8,283,24.06,273l2.3-90.26a8.69,8.69,0,0,1,2.29-6.22,14.94,14.94,0,0,1,5.92-3.43A74.83,74.83,0,0,1,51.5,169.9q8.91-.63,16-.46a87.78,87.78,0,0,1,26.1,4.34,53.36,53.36,0,0,1,19.89,11.82A51,51,0,0,1,126,205.16q4.32,11.72,3.93,27.56-.41,15.47-5.13,26.85a51.11,51.11,0,0,1-33.19,30.19A79,79,0,0,1,66.15,293ZM56.5,264.5c1.35.3,3,.56,5,.8s3.82.39,5.55.44a33.58,33.58,0,0,0,11.62-1.64,23.17,23.17,0,0,0,9.22-5.76A27.93,27.93,0,0,0,94.06,248a50,50,0,0,0,2.53-15.51q.45-17.38-7.11-26.38T69,196.75c-1.73-.05-3.49,0-5.28.05s-3.62.24-5.47.45Z"/><ellipse class="cls-1" cx="80.33" cy="177.36" rx="1.7" ry="1.27" transform="translate(-99.01 253.14) rotate(-88.54)"/><path class="cls-2" d="M81.13,184.31a3.24,3.24,0,0,1,1.44,3.93,4.77,4.77,0,0,1-3.31,2.64,5.19,5.19,0,0,1-3.68-.32,3.69,3.69,0,0,1-.58-6.35,2.89,2.89,0,0,1,1.64-.6A9.83,9.83,0,0,1,81.13,184.31Z"/><path class="cls-1" d="M50.18,176.59c0,.94-.61,1.69-1.31,1.67s-1.25-.8-1.23-1.74.61-1.69,1.31-1.67S50.2,175.65,50.18,176.59Z"/><path class="cls-2" d="M49.71,183.51a3.22,3.22,0,0,1,1.43,3.93,4.73,4.73,0,0,1-3.3,2.64,5.23,5.23,0,0,1-3.69-.32,3.91,3.91,0,0,1-2.11-3,3.86,3.86,0,0,1,1.53-3.3,2.92,2.92,0,0,1,1.65-.6A9.83,9.83,0,0,1,49.71,183.51Z"/><path class="cls-3" d="M44.39,170.8a52.89,52.89,0,0,0-22.73,6.25C15,180.41,9,186.05,6.79,193.44s.25,16.49,6.72,20.23a13.59,13.59,0,0,0,16.91-3.26C35,204.76,34.66,196.6,35,189.23s2.67-16,9.35-18.43"/><path class="cls-3" d="M85.76,171.86a52.72,52.72,0,0,1,22.38,7.4c6.5,3.69,12.18,9.63,14,17.12s-1.08,16.46-7.74,19.86a13.59,13.59,0,0,1-16.72-4.12c-4.27-5.87-3.53-14-3.53-21.39s-1.86-16.1-8.4-18.87"/><path class="cls-4" d="M59.69,179.5c-1.44,2.18.28,5.7,2.81,5.78s4.46-3.32,3.19-5.6a3.69,3.69,0,0,0-6.25.12"/><path class="cls-5" d="M62.23,183.86c-.13,3.34-3.56,6.09-6.69,5.36"/><path class="cls-5" d="M62,182.84c.75,4.29,5.36,7.38,9.42,6.28"/><path class="cls-5" d="M62.85,184.17c-.11,2.14-.72,6.63-.34,8.74s2.16,4.18,4.18,3.77a3.83,3.83,0,0,0,2.66-2.81,12.16,12.16,0,0,0,.23-4.13"/><path class="cls-5" d="M65.53,188l-.12,4.78"/><path class="cls-3" d="M56,340.33l-16.32-7.2a200.83,200.83,0,0,0,7.18,22.33"/><path class="cls-3" d="M63.83,338.6a159.52,159.52,0,0,1,5.73-17.14q3.93,9.45,7.87,18.92"/><path class="cls-3" d="M101.4,429.17c2.76,4.3,8.48,5.28,13,3.28,5-2.25,7.42-8,7.81-13.16.5-6.71-2.23-13.1-3.31-19.61-.52-3.15-.7-6.7.48-9.73.76-1.95,2.36-4.17,4.6-4.48,1.53-.2,3.08.66,4.46,1.18a7.82,7.82,0,0,0,4.62.6c2.93-.69,5.3-3.62,3.76-6.57-1.12-2.14-4.35-.25-3.24,1.89.19.36-.92.88-1.12,1-1.06.37-2.24-.19-3.21-.57-2.36-.92-4.74-1.74-7.25-.83-5,1.83-7,7.49-7.21,12.41-.21,6.06,2,11.82,3.12,17.69.94,4.77,1.11,10.44-2.12,14.46a7.74,7.74,0,0,1-5.77,3,5.91,5.91,0,0,1-5.35-2.43c-1.3-2-4.55-.14-3.24,1.89Z"/><path d="M84.69,361.84q-14.14-.66-22.08,7.62t-8.68,24.08q-.75,16,7.2,25t22.1,9.69a35.44,35.44,0,0,0,12.87-1.42,87.9,87.9,0,0,0,10.22-4.12,18.14,18.14,0,0,1,4.58,6.38,18.91,18.91,0,0,1,1.36,8.44q-.36,7.53-9,12.38t-25.69,4a75.1,75.1,0,0,1-23-4.58,51.58,51.58,0,0,1-18.42-11.63,50.78,50.78,0,0,1-11.91-19Q20.15,407.42,20.86,392q.67-14.33,5.69-25.05a53.74,53.74,0,0,1,13.17-17.88,51.86,51.86,0,0,1,18.82-10.54,64.55,64.55,0,0,1,22.59-2.8q16.91.79,25.92,6.74T115.66,357a14.3,14.3,0,0,1-2.77,8.15,19.66,19.66,0,0,1-5.77,5.26,60.23,60.23,0,0,0-10-5.81A33.32,33.32,0,0,0,84.69,361.84Z"/><path class="cls-1" d="M47.56,356.61a1.3,1.3,0,1,0,.67-1.94A1.47,1.47,0,0,0,47.56,356.61Z"/><path class="cls-6" d="M50,362.75a3,3,0,0,0-.24,4,4.67,4.67,0,0,0,3.88,1.41,5.46,5.46,0,0,0,3.4-1.4,3.73,3.73,0,0,0,1.13-3.4,3.65,3.65,0,0,0-2.39-2.54,3,3,0,0,0-1.73-.05A10.21,10.21,0,0,0,50,362.75Z"/><path class="cls-1" d="M78.5,342.74a1.3,1.3,0,1,0,.66-1.95A1.47,1.47,0,0,0,78.5,342.74Z"/><path class="cls-6" d="M80.91,348.88a3,3,0,0,0-.24,4,4.64,4.64,0,0,0,3.88,1.4,5.37,5.37,0,0,0,3.4-1.39,3.73,3.73,0,0,0,1.14-3.4,3.63,3.63,0,0,0-2.4-2.54A2.88,2.88,0,0,0,85,346.9,10.24,10.24,0,0,0,80.91,348.88Z"/><polygon class="cls-7" points="66.12 355.08 70.22 353.65 69.38 357.17 66.12 355.08"/><path class="cls-8" d="M63.45,360s8.38,2.35,5.06-4.61c0,0,2.6,7,6.5.3"/><path d="M269,265.8c-2.95,0-6.95.18-12.06.45-1.68.11-3.5.22-5.45.36q-4.68.28-6.22.29h-1.38q-6.64,0-6.64-4.06,0-3,5.39-5.91l1.25.17a2.46,2.46,0,0,1,.27-.17A91.88,91.88,0,0,0,257,258.25h.44q12.63,0,21.57-7.17t8.95-17.29q0-15.37-17.82-23.43c0-3.55.26-8.22,2.45-8.07a2.91,2.91,0,0,1,.69.14,3.61,3.61,0,0,1,1.26-.14c.73,0,1.82.85,3.28,1.53a17.32,17.32,0,0,0,4.68,1.52c3.59-.55,5-2.89,5-7.5,0-6.47-2.2-6.87-9.07-7.22-10,.36-15,4.52-15,13.9a29.06,29.06,0,0,0,.39,4.07l-.73-.09v.09c-2.23-.31-4.25-.54-6.08-.7-2.05-.16-3.87-.24-5.46-.26q-12.62,0-21.16,7.5a23.67,23.67,0,0,0-8.59,18.58q0,14.57,14.18,20.62-16.14,8.28-16.14,19.14,0,8.72,13.56,12.49-12.72,2.88-12.72,10.94,0,13.9,31.16,14c1.77,0,3.5,0,5.17-.09q37.17-1.41,37.17-24.59Q294.14,265.93,269,265.8ZM254.65,215l.26,0,.25,0a10.39,10.39,0,0,1,4.3.88q8.31,3.38,8.31,19.81,0,12.44-8.31,14.76a12.75,12.75,0,0,1-3.83.54h-.46q-13.77,0-13.77-17.22Q241.4,215,254.65,215Zm3.88,88.5c-1.3.07-2.65.11-4.09.11H254q-20.58,0-20.58-8.27t21.25-8.35H255c1.23,0,2.38,0,3.5.06q19.32.6,19.33,7.28C277.86,299.84,271.4,302.89,258.53,303.45Z"/><path d="M132.46,65.07c5,11-.68,24.61-9.51,31.88a13.31,13.31,0,0,1-4.44,2.44,16.33,16.33,0,0,1-2.88.61c-2.46.29-5,.57-6.59,2.76-11.16,15.81-32.47,24.58-50.2,14a25.84,25.84,0,0,1-3.92-2.83c-4.92-4.37-9.76-9.72-9.78-9.75-5.23-5.77-9.43-12.4-13.45-19-3.77-6.22-8.22-12.53-9.59-19.81-1.65-8.69-1.92-7.78,0-17.38,2-10.23,10.08-21,20.22-24.37,10.42-3.43,7.64-2.7,14.9-4.35.56-.12.77-1.18.93-1.63a18.11,18.11,0,0,1,7.38-8.81A28.62,28.62,0,0,1,73.59,5a22,22,0,0,1,12.89.43,26.84,26.84,0,0,1,9,4.86c3,2.63,4.37,6.06,6.48,9.37,1.19,1.87,2.42,1.24,5.29,2.73C115.48,26.73,115.82,27,121,33c5,5.87,4.92,15.55,4.25,23.71,0,.29,2.36,2.16,2.61,2.45C129.38,60.94,131.49,62.93,132.46,65.07Z"/><circle class="cls-3" cx="78.9" cy="28.08" r="8.67"/><circle class="cls-3" cx="102.49" cy="47.65" r="8.67"/><circle class="cls-3" cx="112.18" cy="77.09" r="8.67"/><path class="cls-3" d="M80.46,58.67c4.86,5.89,8.25,15.74,6.89,23.38-1.1,6.18-6.23,10.59-9.06,12.92s-6.44,2.29-10.41.65c-5-2.07-10.6-6.76-15.51-12.73C43.58,72.22,41.58,59.36,47.9,54.16a19.62,19.62,0,0,1,9.34-4.39C64.94,48.72,74.6,51.55,80.46,58.67Z"/></svg>