<svg id="Layer_1" data-name="Layer 1" xmlns="http://www.w3.org/2000/svg" viewBox="0 0 270.57 365.96"><defs><style>.cls-1{opacity:0.2;}.cls-2{fill:#410000;}.cls-3{fill:#eeb569;}.cls-4{fill:#fff;}.cls-5{fill:#ff8a9f;}.cls-6{fill:#fce9db;}.cls-7{fill:#ffdde1;}.cls-8{fill:#fff34e;}.cls-9{fill:#fffcfc;opacity:0.34;}.cls-10{fill:#cecece;}</style></defs><title>尾巴</title><ellipse class="cls-1" cx="159.1" cy="326.26" rx="102.57" ry="18.73"/><circle class="cls-2" cx="214.84" cy="250.28" r="43.53"/><path class="cls-3" d="M74.15,56.58c-2.84.65-5.64,1.39-8.38,2.27-1.23.39-2.44.8-3.64,1.23h0a49.24,49.24,0,0,0-5.21-5.85A70.61,70.61,0,0,0,49.36,48a92.49,92.49,0,0,0-8.13-5.34,83.65,83.65,0,0,0-8.64-4.43,1.38,1.38,0,0,0-1.31,2.41l0,0c2.58,1.71,5.16,3.57,7.65,5.43,1.78,1.37,3.54,2.77,5.26,4.21l2,1.67c2.34,2,4.52,4.21,6.69,6.37,1.28,1.3,2.5,2.65,3.69,4a86.52,86.52,0,0,0-14.71,8.11c-2,1.37-3.91,2.82-5.73,4.32s-3.31,2.87-4.84,4.39c-1.76-4.1-3.45-8.5-5-12.93C20.33,48.89,17,31,23.7,27.62a9.81,9.81,0,0,1,6.43-.34C41.67,29.7,60.88,44.4,74.15,56.58Z"/><path class="cls-4" d="M35.85,187.48c-6.13-1.86-8.77-6.65-9.88-10.74a22.45,22.45,0,0,1-.69-3.66,2.27,2.27,0,0,0,.59-.19l2.69-1.24c.61.87,1.24,1.66,1.87,2.46.86,1.06,1.75,2.08,2.71,3a40.11,40.11,0,0,1,1.76,5.46A46.6,46.6,0,0,1,35.85,187.48Z"/><path class="cls-5" d="M57.85,194.91a8.87,8.87,0,0,1-8.78,3.42l-.23,0a9.18,9.18,0,0,1-7.19-8.42c-.07-.83-.15-1.64-.26-2.43-.21-1.69-.49-3.25-.8-4.68A19.25,19.25,0,0,0,43.84,184a20.15,20.15,0,0,0,11.54.06,19,19,0,0,0,2.35-.91,13.09,13.09,0,0,1,1.12,1.92A9.37,9.37,0,0,1,57.85,194.91Z"/><path class="cls-3" d="M77.32,254.27c-.14,1-.27,2-.37,3,0,.05,0,.11,0,.16A92.47,92.47,0,0,0,62,242.27a2.81,2.81,0,0,0-2-.57c-1.79.16-7,0-9.24-2.86A5.84,5.84,0,0,1,49.6,236a12.68,12.68,0,0,1,.22-4.51,0,0,0,0,1,0,0,17.38,17.38,0,0,1,.54-2.12A28.62,28.62,0,0,1,59,216.72c1,.35,2,.68,3,1,.44.13.86.28,1.29.45A37.24,37.24,0,0,1,70.74,222,38.66,38.66,0,0,1,77,227.1l1.38,1.39a48.88,48.88,0,0,0-1,25.78Z"/><path class="cls-6" d="M104.87,205.11a56.52,56.52,0,0,0-2.68,6.87l0,.14a13.64,13.64,0,0,0-.42,1.42,54.16,54.16,0,0,0-4.33,3.36,60.94,60.94,0,0,0-4.72,4.65,59.59,59.59,0,0,0-7.77,10.69,68,68,0,0,0-3.07,6.16,41.81,41.81,0,0,1,14.89-27.73c1.43-1.17,2.84-2.21,4.2-3.13S103.65,205.79,104.87,205.11Z"/><path class="cls-6" d="M151.92,252.13a32.23,32.23,0,0,1-14.37,18.95,42.86,42.86,0,0,1-15.93,5.62c9.76-6.42,13-16.18,14.12-20.95a22.76,22.76,0,0,0,2.48,0,17.72,17.72,0,0,0,3.87-.68l.15-.05a16.38,16.38,0,0,0,6.09-3.37C149.53,251.85,150.72,252,151.92,252.13Z"/><path class="cls-3" d="M130.31,254.75a29.93,29.93,0,0,1-6.2,12.43,26.42,26.42,0,0,1-8.5,6.63,7.44,7.44,0,0,0-.42-.79,1.41,1.41,0,0,0-1.43-.66,1.37,1.37,0,0,0-1.15,1.6v0c.08.5.16,1,.22,1.5.16,1.06.31,2.1.44,3.15,0,.22,0,.43.07.65.11.8.19,1.6.27,2.4.13,1.46.25,2.91.34,4.38a95,95,0,0,1,0,12.17,109.54,109.54,0,0,1-1.53,12.18c-.35,2-.8,4-1.24,6l-.36,1.5c-.07.28-.11.42-.16.57s-.11.31-.16.47a5,5,0,0,1-1.14,1.59,4.79,4.79,0,0,1-1.67,1,4.32,4.32,0,0,1-.94.24l-.55,0-.78.05-6.31.38c-1.94.13-3.84.25-5.69.31a48.65,48.65,0,0,1-6.41-.17,20.43,20.43,0,0,1-5.33-1.16,6.51,6.51,0,0,1-2.41-1.54,1.53,1.53,0,0,1-.39-.71c-.11-.17-.07-.41-.12-.61a2.61,2.61,0,0,1,.1-.76,6.22,6.22,0,0,1,.3-.89l.26-.46.39-.75c.18-.36.37-.72.52-1.09a7.32,7.32,0,0,0,.32-1l.27-1,.13-.91a29,29,0,0,0,.32-3.48c.16-4.42,0-8.6,0-12.79s-.06-8.34,0-12.5q.28-12.48,1.64-24.9a59.07,59.07,0,0,1,7-22.79A55.53,55.53,0,0,1,97,225.37a58.16,58.16,0,0,1,4.19-4.27l.1-.09.76-.67a18.07,18.07,0,0,0,5.16,8.47c1.47,1.4,3,2.8,4.71,4.16a19.35,19.35,0,0,0,2.8,9.73,26.35,26.35,0,0,0,7.87,8.28l.47.32A27.35,27.35,0,0,0,130.31,254.75Z"/><path class="cls-6" d="M128.45,243.33a12.63,12.63,0,0,1-3.59,2.52,20.39,20.39,0,0,1-5.4-5.88s0,0,0-.05c-3.45-5.91-2.44-12.26,2.86-18,1.91.87,5.16,2.3,9.28,3.86a24.48,24.48,0,0,1,.56,3.07C132.67,232.94,132.58,239.17,128.45,243.33Z"/><path class="cls-6" d="M140.48,249.79a15.64,15.64,0,0,1-10.09-.86,16.78,16.78,0,0,0,4.25-4.61c2.76-4.36,3.43-9.65,3.13-14.29-.05-.74-.12-1.46-.21-2.15,3.31,1.12,6.94,2.2,10.69,3.13C149,235.26,150,246.88,140.48,249.79Z"/><path class="cls-3" d="M229.84,238.71h0l-1.61.66c-.63.26-1.27.49-1.9.74A131.13,131.13,0,0,1,209,244.87a1.4,1.4,0,0,0-1.11,1.39,1.38,1.38,0,0,0,1.43,1.34c1.18,0,2.36-.08,3.55-.19a72.49,72.49,0,0,0,15-2.6l.18-.06c2.3,8.09,6.6,20.91,13.07,31.21a19.63,19.63,0,0,1,3,8.42c.72,6.53,1.09,19.16-4.23,31.67a113.32,113.32,0,0,1-17.5,2.74,95.43,95.43,0,0,1-16.47,0,.56.56,0,0,1-.39-.22.59.59,0,0,1-.08-.45A25.06,25.06,0,0,0,202.68,299c.83-.46,1.64-.93,2.43-1.44a59.49,59.49,0,0,0,14.81-12.8c.84-1,1.64-2.11,2.39-3.22a42.24,42.24,0,0,0,6.2-13.4,1.4,1.4,0,0,0-.81-1.62,1.37,1.37,0,0,0-1.8.76,46.37,46.37,0,0,1-7,11.72,55.59,55.59,0,0,1-9.88,9.32,73.87,73.87,0,0,1-11.73,7c-.73.36-1.48.71-2.23,1.05-.54.26-1.07.49-1.61.71l-1,.46c-1.39.58-2.8,1.13-4.21,1.66v-.66c0-1.69.09-3.41.25-5.1,0-.64.11-1.27.19-1.9a56.91,56.91,0,0,1,1.23-6.63,41.17,41.17,0,0,1,2.33-6.32l0-.09a1.38,1.38,0,0,0-.27-1.55,1.4,1.4,0,0,0-2,0,22.83,22.83,0,0,0-4.48,6.35,35.1,35.1,0,0,0-2.4,7.35,47.4,47.4,0,0,0-.84,7.58,57.3,57.3,0,0,0,.29,7.69l.09.39a.92.92,0,0,0,0,.34v.67c0,.44-.1,1-.13,1.55l-.27,1.67-.37,1.7a56.26,56.26,0,0,1-2.09,6.77,43.7,43.7,0,0,1-2.93,6.29,13,13,0,0,1-3.66,4.39,13.6,13.6,0,0,1-2.77.94c-1.08.28-2.24.49-3.41.69-2.35.39-4.75.67-7.17.87-1.4.1-2.81.21-4.21.26-.81,0-1.62.08-2.43.1-2.64.08-5.26.06-7.84-.11-1.17-.07-2.34-.2-3.45-.36a14.58,14.58,0,0,1-2.94-.71,4.59,4.59,0,0,1,.83-1.65,20,20,0,0,0,3.06-8.18c.21-1.36.32-2.71.4-4s.15-2.48.24-3.72c.64-10,1.68-19.89.91-30a1.4,1.4,0,0,0-1.08-1.25,1.36,1.36,0,0,0-1.66,1q-.5,2-.87,4a151.54,151.54,0,0,0-2.07,15.24,61.25,61.25,0,0,1-19.15-7.3,60.18,60.18,0,0,0-.41-9.94c-.14-1-.31-2-.53-3,1.22-.11,2.75-.28,4.5-.58a54.57,54.57,0,0,0,8.82-2.3h0c9.83-3.51,21.23-11.05,25.51-27.25.69,0,1.37,0,2.06-.08a40.49,40.49,0,0,0,8.86-1.54c15.07-4.4,28.21-15.14,34.63-27.62.32-.58.6-1.16.88-1.76a64.49,64.49,0,0,0,11.17-9.78"/><path class="cls-6" d="M193.47,205.46a3.62,3.62,0,0,1-1.29,2.74.45.45,0,0,1-.13.11,3.69,3.69,0,0,1-3.13.84,3.45,3.45,0,0,1-1.91-1s0,0,0,0,0,0,0,0a.26.26,0,0,0-.09-.09v0h0l-.06-.07-.09-.07c-.16-.19-.32-.35-.49-.52a29.69,29.69,0,0,0-7.58-5.63,18.16,18.16,0,0,1,5.76-4.38,23.05,23.05,0,0,1,2.48,1.32,35,35,0,0,1,4.61,3.37c.24.22.51.43.76.67A3.77,3.77,0,0,1,193.47,205.46Z"/><path class="cls-6" d="M201.09,213.08c-.11.43-.22.87-.36,1.32,0,0,0,0,0,.08a33.34,33.34,0,0,1-1.5,4,2,2,0,0,0-.13.31c-4.92,10.67-16.39,22.09-32.15,26.68a35.63,35.63,0,0,1-11.35,1.41,2.26,2.26,0,0,0-.37,0c-1.05,0-2.1-.12-3.16-.25.29-.61.56-1.23.79-1.87,2.08-5.78,1.52-12.47.41-16.71a2.77,2.77,0,0,0-2-2,150.36,150.36,0,0,1-28.32-10,2.76,2.76,0,0,0-3.11.49,28,28,0,0,0-5.53,7.15,19.41,19.41,0,0,0-1.3,2.93c-.8-.72-1.48-1.34-2-1.84a12.51,12.51,0,0,1-3.81-6.71,8.57,8.57,0,0,1-.14-2.39,1.87,1.87,0,0,1,.05-.58,3.24,3.24,0,0,1,.12-.62.83.83,0,0,0,0-.14c1.61-1.55,9.09-7.51,23.38-.71a67.09,67.09,0,0,0,32.11,6.27,50.75,50.75,0,0,0,16.13-3.67,43.29,43.29,0,0,0,5.88-3,9.06,9.06,0,0,0,5.5,1.41,9.44,9.44,0,0,0,5.43-2.2l.12-.11a9.13,9.13,0,0,0,2.16-11.23q.83-1.09,1.59-2.25C202.36,203.69,202,209.06,201.09,213.08Z"/><path class="cls-6" d="M195,195.71c-.3.45-.59.88-.91,1.31a38.69,38.69,0,0,0-3.93-2.84,29.34,29.34,0,0,0-4.76-2.43,2.76,2.76,0,0,0-1.88-.06,23,23,0,0,0-11.54,9.8,2.72,2.72,0,0,0,1.67,4.06s.24.07.65.24a21.15,21.15,0,0,1,6.08,3.62c-15.74,8.6-35.11,5.17-47.45-.7-.34-.16-.67-.32-1-.46-9.48-4.26-16.63-3.74-21.48-2.05,6.66-13.25,19-23.24,34.25-27.44,17.2-4.73,34.88-1.24,47.78,9.32l0,0c.57.46,1.12.93,1.66,1.42A4.83,4.83,0,0,1,195,195.71Z"/><path class="cls-4" d="M27.78,159.23a19.76,19.76,0,0,1-5.31-3.8,18.34,18.34,0,0,0-.69,5,15.16,15.16,0,0,0,1,5.27l.49,1.21a1.26,1.26,0,0,0,.32.4,1.2,1.2,0,0,0,.6.29l2.07-1C28.09,164.2,28,161,27.78,159.23Zm167.6-10.78q1.14-.72,2.55-1.74a44.12,44.12,0,0,0,6.73-6c2.2-2.47,3.67-5,3.17-7.06a2.79,2.79,0,0,0-1.39-1.82c-2.61-1.55-8.19-1.12-12.57,0v0a1.69,1.69,0,0,1-.56.11,2.72,2.72,0,0,1-2.92-2.57,2.74,2.74,0,0,1,1.7-2.71,13.86,13.86,0,0,0,5.74-4.46,3.72,3.72,0,0,0,.53-3.13,3.9,3.9,0,0,0-2.11-2.5c-1.05-.49-2.06-1-3-1.58a50.94,50.94,0,0,1-16-14.75c-1.61-2.43-3.33-4.78-5.12-7a0,0,0,0,1,0,0,2.92,2.92,0,0,1-.21-.32.1.1,0,0,1,0-.08,1.13,1.13,0,0,1-.11-.22,1.77,1.77,0,0,1-.12-.37l0,0,0-.14c-13.5-50.91-34.91-75.38-46-79.41-2.53-.92-4.55-.86-6,.19-7.83,5.54-13.31,29.39-15.36,41.31a106.85,106.85,0,0,1,39.87,10.23c-.67-1.85-1.37-3.68-2.12-5.49-1.57-4-3.37-7.89-5.25-11.75s-4-7.58-6.27-11.23c-1.14-1.82-2.33-3.61-3.6-5.33a54.82,54.82,0,0,0-3.92-5l-.07-.09a1.36,1.36,0,0,1,.12-1.94,1.38,1.38,0,0,1,1.77,0A60.51,60.51,0,0,1,134,33.47a102.53,102.53,0,0,1,7.43,11.2c1.1,1.94,2.15,3.92,3.11,5.95s1.92,4,2.8,6.11S149,60.91,149.77,63s1.37,4.24,2,6.38c0,0,0,0,0,0a.3.3,0,0,1,0,.13,2.71,2.71,0,0,1-.28,2,2.74,2.74,0,0,1-3.75,1,100.49,100.49,0,0,0-46.2-13,2.47,2.47,0,0,1-.94,0,1.87,1.87,0,0,1-.34-.08A101.44,101.44,0,0,0,81.15,60.8a0,0,0,0,1,0,0,2.68,2.68,0,0,1-1.39.23A88.81,88.81,0,0,0,45,75,69.69,69.69,0,0,0,32.59,85.74a4.12,4.12,0,0,1-.28.31q-1.88,2.1-3.51,4.34c-10.13,13.69-14,30.81-11,49.88a2.78,2.78,0,0,1-.65,2.25c-.12.13-11.79,13.84-7.31,30.12a34.67,34.67,0,0,0,7.23,13.26h0c7.21,8.54,19.1,16.09,35.55,22.61,2.12.84,4.33,1.67,6.61,2.47,1.44.52,2.92,1,4.43,1.52a40,40,0,0,1,4.12,1.62,44.21,44.21,0,0,1,12.75,8.76,46.62,46.62,0,0,1,5.08-8.5c.69-.92,1.4-1.8,2.14-2.67a46.68,46.68,0,0,1,5.49-5.3,59.91,59.91,0,0,1,16.47-9.68,60.09,60.09,0,0,1,33.54-23.27,61.06,61.06,0,0,1,32-.27,57.6,57.6,0,0,1,10.42,3.94c14.93-12.91,18.79-19.32,18.67-21.1a2.85,2.85,0,0,0-.45-1.49,2.28,2.28,0,0,0-.42-.41c-1.49-1.13-4.72-.94-6.05-.67a2.78,2.78,0,0,1-2.73-1,3,3,0,0,1-.37-.65A2.75,2.75,0,0,1,195.38,148.45ZM63.81,182.72a14.9,14.9,0,0,1-1.58,15.52A14.69,14.69,0,0,1,57,202.59,14,14,0,0,1,51.74,204a15,15,0,0,1-3.64-.2l-.29-.07a14.41,14.41,0,0,1-8.55-5.34,14.87,14.87,0,0,1-2.54-5c-13.46-2.46-17-14.72-17.09-22.2a6.72,6.72,0,0,1-1.29-1.75c-.29-.64-.49-1.15-.73-1.73a20.72,20.72,0,0,1-1.33-7.2,24,24,0,0,1,1.06-7.09,27.55,27.55,0,0,1,1.24-3.32,24.59,24.59,0,0,1,1.73-3.24,2.58,2.58,0,0,1,1.17-1A7.6,7.6,0,0,1,24,144.5a2.59,2.59,0,0,1,.8-.74l0,0a35.8,35.8,0,0,0,4.92-3.35A16.95,16.95,0,0,1,41.14,112c.26,0,.52,0,.77,0a53.55,53.55,0,0,0-3.67-8.66,1.41,1.41,0,0,1,2.2-1.66,25.62,25.62,0,0,1,4.54,5.2,18.21,18.21,0,0,1,2.8,6.84,16.13,16.13,0,0,1,.21,2,17.3,17.3,0,0,1-.06,2c-.1,1.19-.25,2.34-.46,3.5a39.24,39.24,0,0,1-1.78,6.79,38.06,38.06,0,0,1-7.07,12.18c-.8.88-1.62,1.74-2.48,2.56-.68.59-1.37,1.18-2.06,1.74a25.9,25.9,0,0,1,2.65.75c7.86,2.67,13.06,8.34,11.59,12.65-.92,2.69-4.21,4.22-8.46,4.34a24.53,24.53,0,0,1-8.45-1.38,26.38,26.38,0,0,1-3.63-1.54,19.76,19.76,0,0,1-5.31-3.8,18.34,18.34,0,0,0-.69,5,15.16,15.16,0,0,0,1,5.27l.49,1.21a1.26,1.26,0,0,0,.32.4,1.2,1.2,0,0,0,.6.29l2.07-1,2.21-1v0a2.74,2.74,0,0,1,3.39.93l.14.19a52.37,52.37,0,0,0,6.24,7.07,20.75,20.75,0,0,0,3.46,2.79,18,18,0,0,0,3.91,1.92,17.34,17.34,0,0,0,11.48,0,15.47,15.47,0,0,0,2.08-.86,18.25,18.25,0,0,0,3.29-2l0,0a1.39,1.39,0,0,1,2,1.88,14.43,14.43,0,0,1-2.2,2.6A18.86,18.86,0,0,1,63.81,182.72Zm20.47-23.33a17,17,0,1,1,15.83-18A17,17,0,0,1,84.28,159.39Zm16.11-44.34a1.46,1.46,0,0,1-1.07.67h-.16c-1.67.15-3.19.19-4.75.38s-3.08.35-4.62.6l-4.72.79c-1.58.26-3.24.54-4.92.65l-.13,0A1.44,1.44,0,0,1,79,115.68a16.42,16.42,0,0,1,4.7-2.91A21.32,21.32,0,0,1,89,111.29a20.65,20.65,0,0,1,5.61-.06,14.27,14.27,0,0,1,5.37,1.86A1.42,1.42,0,0,1,100.39,115.05ZM27.78,159.23a19.76,19.76,0,0,1-5.31-3.8,18.34,18.34,0,0,0-.69,5,15.16,15.16,0,0,0,1,5.27l.49,1.21a1.26,1.26,0,0,0,.32.4,1.2,1.2,0,0,0,.6.29l2.07-1C28.09,164.2,28,161,27.78,159.23Z"/><path class="cls-2" d="M82.07,125.54a17,17,0,1,1-15.82,18A17,17,0,0,1,82.07,125.54Z"/><path class="cls-2" d="M94.56,111.23a14.27,14.27,0,0,1,5.37,1.86,1.42,1.42,0,0,1,.46,2,1.46,1.46,0,0,1-1.07.67h-.16c-1.67.15-3.19.19-4.75.38s-3.08.35-4.62.6l-4.72.79c-1.58.26-3.24.54-4.92.65l-.13,0A1.44,1.44,0,0,1,79,115.68a16.42,16.42,0,0,1,4.7-2.91A21.32,21.32,0,0,1,89,111.29,20.65,20.65,0,0,1,94.56,111.23Z"/><path class="cls-2" d="M59.16,177.66a18.25,18.25,0,0,0,3.29-2l0,0a1.39,1.39,0,0,1,2,1.88,14.43,14.43,0,0,1-2.2,2.6,18.86,18.86,0,0,1,1.52,2.6,14.9,14.9,0,0,1-1.58,15.52A14.28,14.28,0,0,1,51.74,204a15,15,0,0,1-3.64-.2l-.29-.07a14.6,14.6,0,0,1-11.09-10.34c-13.46-2.46-17-14.72-17.09-22.2a6.72,6.72,0,0,1-1.29-1.75c-.29-.64-.49-1.15-.73-1.73a20.72,20.72,0,0,1-1.33-7.2,24,24,0,0,1,1.06-7.09,27.55,27.55,0,0,1,1.24-3.32,24.59,24.59,0,0,1,1.73-3.24,2.58,2.58,0,0,1,1.17-1A7.6,7.6,0,0,1,24,144.5a2.59,2.59,0,0,1,.8-.74l0,0a35.8,35.8,0,0,0,4.92-3.35A16.95,16.95,0,0,1,41.14,112c.26,0,.52,0,.77,0a53.55,53.55,0,0,0-3.67-8.66,1.41,1.41,0,0,1,2.2-1.66,25.62,25.62,0,0,1,4.54,5.2,18.21,18.21,0,0,1,2.8,6.84,16.13,16.13,0,0,1,.21,2,17.3,17.3,0,0,1-.06,2c-.1,1.19-.25,2.34-.46,3.5a39.24,39.24,0,0,1-1.78,6.79,38.06,38.06,0,0,1-7.07,12.18c-.8.88-1.62,1.74-2.48,2.56-.68.59-1.37,1.18-2.06,1.74a25.9,25.9,0,0,1,2.65.75c7.86,2.67,13.06,8.34,11.59,12.65s-9,5.65-16.91,3a22.79,22.79,0,0,1-8.94-5.34,18.34,18.34,0,0,0-.69,5,15.16,15.16,0,0,0,1,5.27l.49,1.21a1.26,1.26,0,0,0,.32.4,1.2,1.2,0,0,0,.6.29l4.28-2v0a2.74,2.74,0,0,1,3.39.93l.14.19a52.37,52.37,0,0,0,6.24,7.07,20.75,20.75,0,0,0,3.46,2.79,18,18,0,0,0,3.91,1.92,17.34,17.34,0,0,0,11.48,0A15.47,15.47,0,0,0,59.16,177.66Zm-1.31,17.25a9.37,9.37,0,0,0,1-9.8,13.09,13.09,0,0,0-1.12-1.92,19,19,0,0,1-2.35.91A20.15,20.15,0,0,1,43.84,184a19.25,19.25,0,0,1-3.25-1.28,50.28,50.28,0,0,1,1.06,7.11,9.18,9.18,0,0,0,7.19,8.42l.23,0A8.83,8.83,0,0,0,57.85,194.91Zm-22-7.43a44.33,44.33,0,0,0-2.71-10.32c-1-1-1.85-2-2.71-3-.63-.8-1.26-1.59-1.87-2.46l-2.69,1.24a2.27,2.27,0,0,1-.59.19C25.74,177.41,27.73,185,35.85,187.48Z"/><path class="cls-2" d="M130.39,248.93a15.64,15.64,0,0,0,10.09.86c9.55-2.91,8.5-14.53,7.77-18.78-3.75-.93-7.38-2-10.69-3.13C138.46,234.71,137.45,243.66,130.39,248.93ZM151.75,69.37s0,0,0,0a.3.3,0,0,1,0,.13,2.71,2.71,0,0,1-.28,2,2.74,2.74,0,0,1-3.75,1,100.49,100.49,0,0,0-46.2-13,2.47,2.47,0,0,1-.94,0l-.34-.07A100.61,100.61,0,0,0,81.15,60.8a0,0,0,0,1,0,0,2.68,2.68,0,0,1-1.39.23A88.81,88.81,0,0,0,45,75,69.69,69.69,0,0,0,32.59,85.74a4.12,4.12,0,0,1-.28.31c-12.72,14.34-17.84,33.08-14.52,54.22a2.78,2.78,0,0,1-.65,2.25c-.12.13-11.79,13.84-7.31,30.12C14,188,30.66,200.88,59.24,211c1.44.52,2.92,1,4.43,1.52a43.87,43.87,0,0,1,16.87,10.38,46.36,46.36,0,0,1,12.71-16.47,59.91,59.91,0,0,1,16.47-9.68,61.37,61.37,0,0,1,75.92-19.6c14.93-12.91,18.79-19.32,18.67-21.1a2.28,2.28,0,0,0-.87-1.9c-1.49-1.13-4.72-.94-6.05-.67a2.75,2.75,0,0,1-2-5c4.56-2.85,13.6-10.19,12.45-14.78a2.79,2.79,0,0,0-1.39-1.82c-2.61-1.55-8.19-1.12-12.57,0v0a1.69,1.69,0,0,1-.56.11,2.75,2.75,0,0,1-1.22-5.28,13.86,13.86,0,0,0,5.74-4.46,3.72,3.72,0,0,0,.53-3.13,3.9,3.9,0,0,0-2.11-2.5,50.48,50.48,0,0,1-19-16.33c-1.61-2.43-3.33-4.78-5.12-7a0,0,0,0,1,0,0,2.92,2.92,0,0,1-.21-.32.1.1,0,0,1,0-.08,1.13,1.13,0,0,1-.11-.22,1.77,1.77,0,0,1-.12-.37l0,0,0-.14c-13.5-50.91-34.91-75.38-46-79.41-2.53-.92-4.55-.86-6,.19-7.83,5.54-13.31,29.39-15.36,41.31a106.85,106.85,0,0,1,39.87,10.23c-.67-1.85-1.37-3.68-2.12-5.49-1.57-4-3.37-7.89-5.25-11.75s-4-7.58-6.27-11.23c-1.14-1.82-2.33-3.61-3.6-5.33a54.82,54.82,0,0,0-3.92-5l-.07-.09a1.36,1.36,0,0,1,.12-1.94,1.38,1.38,0,0,1,1.77,0A60.51,60.51,0,0,1,134,33.47a102.53,102.53,0,0,1,7.43,11.2c1.1,1.94,2.15,3.92,3.11,5.95s1.92,4,2.8,6.11S149,60.91,149.77,63,151.14,67.23,151.75,69.37Zm56.09,176.89a1.4,1.4,0,0,1,1.11-1.39,131.13,131.13,0,0,0,17.37-4.76c.63-.25,1.27-.48,1.9-.74l1.61-.66h0M215.16,211.6A64.49,64.49,0,0,1,204,221.38c-6.07,13.22-19.73,24.77-35.51,29.38a40.49,40.49,0,0,1-8.86,1.54c-.69,0-1.37.08-2.06.08-6.63,25.1-30.37,29.41-38.87,30.13.22,1,.39,2,.53,3a60.18,60.18,0,0,1,.41,9.94,61.25,61.25,0,0,0,19.15,7.3,134.19,134.19,0,0,1,2.94-19.23,1.36,1.36,0,0,1,1.66-1,1.4,1.4,0,0,1,1.08,1.25c.77,10.08-.27,20-.91,30-.09,1.24-.2,2.48-.24,3.72s-.19,2.66-.4,4a20,20,0,0,1-3.06,8.18,4.59,4.59,0,0,0-.83,1.65A14.58,14.58,0,0,0,142,332c1.11.16,2.28.29,3.45.36a103.13,103.13,0,0,0,14.48-.25c2.42-.2,4.82-.48,7.17-.87,1.17-.2,2.33-.41,3.41-.69a13.6,13.6,0,0,0,2.77-.94,13,13,0,0,0,3.66-4.39,43.7,43.7,0,0,0,2.93-6.29,56.26,56.26,0,0,0,2.09-6.77l.37-1.7.27-1.67c0-.51.14-1.11.13-1.55v-.67a.92.92,0,0,1,0-.34l-.09-.39a57.3,57.3,0,0,1-.29-7.69,47.4,47.4,0,0,1,.84-7.58,35.1,35.1,0,0,1,2.4-7.35,22.83,22.83,0,0,1,4.48-6.35,1.4,1.4,0,0,1,2,0,1.38,1.38,0,0,1,.27,1.55l0,.09a41.17,41.17,0,0,0-2.33,6.32,56.91,56.91,0,0,0-1.23,6.63,66.73,66.73,0,0,0-.44,6.8c0,.28,0,.57,0,.86a94.72,94.72,0,0,0,9.09-3.88,73.87,73.87,0,0,0,11.73-7,55.59,55.59,0,0,0,9.88-9.32,46.37,46.37,0,0,0,7-11.72,1.37,1.37,0,0,1,1.8-.76,1.4,1.4,0,0,1,.81,1.62,42.24,42.24,0,0,1-6.2,13.4,53.36,53.36,0,0,1-10.05,10.9,62.23,62.23,0,0,1-9.58,6.56,25.06,25.06,0,0,1,2.78,19.13.59.59,0,0,0,.08.45.56.56,0,0,0,.39.22,109.49,109.49,0,0,0,34-2.7c5.32-12.51,4.95-25.14,4.23-31.67-.31-2.88-2.12-5.37-3-8.42A153.32,153.32,0,0,0,228,244.75l-.18.06M32.59,38.19a83.65,83.65,0,0,1,8.64,4.43A92.49,92.49,0,0,1,49.36,48a70.61,70.61,0,0,1,7.55,6.28,49.24,49.24,0,0,1,5.21,5.85h0a95.82,95.82,0,0,1,12-3.49c-16.21-14.91-41.31-33.54-50.45-29-8.41,4.2-1,31.43,7.59,51.51a76.34,76.34,0,0,1,10.57-8.71,86.52,86.52,0,0,1,14.71-8.11c-1.19-1.36-2.41-2.71-3.69-4-2.17-2.16-4.35-4.33-6.69-6.37S41.42,48,39,46.05s-5.07-3.72-7.65-5.43l0,0a1.38,1.38,0,0,1,1.31-2.41ZM76.94,257.42c0-.05,0-.11,0-.16.1-1,.23-2,.37-3a48.51,48.51,0,0,1,1-25.78L77,227.1a38.29,38.29,0,0,0-15-9.36c-1-.34-2-.67-3-1a28.62,28.62,0,0,0-8.59,12.63c-1.31,4.32-1.17,7.5.45,9.49,2.29,2.83,7.45,3,9.24,2.86a2.81,2.81,0,0,1,2,.57A92.47,92.47,0,0,1,76.94,257.42ZM115.19,273a7.44,7.44,0,0,1,.42.79c10.31-5.11,13.67-14.67,14.7-19.06a27.35,27.35,0,0,1-7.3-3.45,26.55,26.55,0,0,1-8.34-8.6,19.35,19.35,0,0,1-2.8-9.73c-1.66-1.36-3.24-2.76-4.71-4.16a18.07,18.07,0,0,1-5.16-8.47l-.86.76A58.16,58.16,0,0,0,97,225.37,55.53,55.53,0,0,0,90,235.13a59.07,59.07,0,0,0-7,22.79q-1.35,12.42-1.64,24.9c-.11,4.16-.1,8.32,0,12.5s.19,8.37,0,12.79a29,29,0,0,1-.32,3.48l-.13.91-.27,1a7.32,7.32,0,0,1-.32,1c-.15.37-.34.73-.52,1.09l-.39.75-.26.46a6.22,6.22,0,0,0-.3.89,2.61,2.61,0,0,0-.1.76c0,.2,0,.44.12.61.16.75,1.26,1.64,2.8,2.25A20.43,20.43,0,0,0,87,322.47a74.52,74.52,0,0,0,12.1-.14l6.31-.38.78-.05.55,0a4.32,4.32,0,0,0,.94-.24,4.79,4.79,0,0,0,1.67-1A5,5,0,0,0,110.5,319c0-.16.12-.31.16-.47s.09-.29.16-.57l.36-1.5c.44-2,.89-4,1.24-6A109.54,109.54,0,0,0,114,298.23a95,95,0,0,0,0-12.17c-.09-1.47-.21-2.92-.34-4.38-.08-.8-.16-1.6-.27-2.4,0-.22,0-.43-.07-.65-.13-1.05-.28-2.09-.44-3.15-.06-.49-.14-1-.22-1.5v0a1.37,1.37,0,0,1,1.15-1.6A1.41,1.41,0,0,1,115.19,273Zm130-3.38.78,3.7s-2.81-10.88-.2-.32a4.17,4.17,0,0,0,.58,1,25,25,0,0,1,3.28,9.8c.79,7.31,1.18,21.65-5.22,35.74a2.77,2.77,0,0,1-1.75,1.51,112.52,112.52,0,0,1-21.24,3.37,101.1,101.1,0,0,1-16-.17,6,6,0,0,1-4.35-2.5,6.08,6.08,0,0,1-.95-5,19.27,19.27,0,0,0-2.34-15.29,75.66,75.66,0,0,1-9.21,3.54h0c.08.37.13.74.19,1.1s0,.8,0,1.22c0,.81-.1,1.45-.15,2.18l-.29,2-.38,2a62.25,62.25,0,0,1-2.22,7.59,44.33,44.33,0,0,1-3.3,7.3A25.9,25.9,0,0,1,180,332a13.88,13.88,0,0,1-3.69,3.27,19,19,0,0,1-4.28,1.55c-1.33.33-2.62.6-3.92.82-2.59.43-5.15.72-7.71.94a102.33,102.33,0,0,1-15.47.1c-1.31-.09-2.63-.25-4-.47a19,19,0,0,1-4.32-1.15,8.32,8.32,0,0,1-1.29-.66c-.24-.16-.49-.32-.72-.5a6.85,6.85,0,0,1-.78-.82,4.51,4.51,0,0,1-.69-1.26l-.13-.35a1.58,1.58,0,0,1-.06-.23c0-.14-.06-.28-.08-.41a7.88,7.88,0,0,1-.06-1.67,9.91,9.91,0,0,1,2-4.89,14.1,14.1,0,0,0,2.25-5.72c.19-1.09.32-2.24.41-3.43s.21-2.49.32-3.73c.16-1.68.3-3.37.45-5.06a68.33,68.33,0,0,1-19-6.68c-.28,3.3-.72,6.55-1.28,9.8-.34,2.11-.78,4.22-1.24,6.32l-.35,1.57c-.06.24-.16.6-.26.95s-.23.68-.36,1a10.68,10.68,0,0,1-2.45,3.53,10.55,10.55,0,0,1-3.66,2.28,10.72,10.72,0,0,1-2.09.55l-1,.11-.78,0-6.3.44a79.73,79.73,0,0,1-13.08.23,25.74,25.74,0,0,1-7-1.5,13.23,13.23,0,0,1-3.55-2,10.86,10.86,0,0,1-1.62-1.63,8.47,8.47,0,0,1-1.18-2.2,8.74,8.74,0,0,1-.49-2.46,10.11,10.11,0,0,1,.25-2.36,11.5,11.5,0,0,1,.7-2.1c.16-.31.33-.61.49-.93l.26-.44a.8.8,0,0,0,.07-.2,3.36,3.36,0,0,1,.16-.33c.06-.12.09-.35.15-.5l.14-.53.1-.64c.15-.84.19-1.85.26-2.81.14-4,0-8.21,0-12.42s0-8.48.07-12.73q.2-8.07.85-16.11c-3.79-8.24-13.83-16.94-16.7-19.32-2.66,0-9.12-.38-12.82-4.91-2.86-3.48-3.34-8.39-1.46-14.58a32.74,32.74,0,0,1,8-13.12C25.32,204,9,190.42,4.51,174c-4.53-16.6,4.73-30.33,7.66-34.13C9,118.07,14.32,98.62,27.22,83.52c-5.25-11.8-22-52.82-6-60.83C37,14.85,73.12,48,80.85,55.31A108.05,108.05,0,0,1,98.68,54c1.51-9.19,7-38,17.72-45.61,2.07-1.48,5.67-2.83,11-.88C142,12.81,163.64,41,176.79,90.28c1.75,2.2,3.46,4.53,5.05,7,.08.1,6.34,9.48,16.75,14.36a9.41,9.41,0,0,1,5.08,6,9.3,9.3,0,0,1-1.29,7.69l0,.06a14.59,14.59,0,0,1,6.92,1.75,8.31,8.31,0,0,1,3.9,5.2c1.5,6-3.91,12.17-8.65,16.21a8.42,8.42,0,0,1,2.26,1.22,7.83,7.83,0,0,1,3,5.92c.09,1.41.29,4.4-6.4,12A139.77,139.77,0,0,1,190.73,180a54.13,54.13,0,0,1,7.15,5.41,10.38,10.38,0,0,1,3.35,6.76c5,5.13,6.93,12.1,5.66,19.9,1.48-1.3,2.33-3.38,4.13-4.11,3.88-1.58,5.1-.35,5.1-.35l2.29,1.6,6.16,8.29,4.86,11.37,4.65,11.64m-33-27.44c.95-4,1.27-9.39-1.59-14.17q-.76,1.16-1.59,2.25a9.13,9.13,0,0,1-2.16,11.23l-.12.11a9.44,9.44,0,0,1-5.43,2.2,9.06,9.06,0,0,1-5.5-1.41,48.31,48.31,0,0,1-22,6.65,67.09,67.09,0,0,1-32.11-6.27c-14.29-6.8-21.77-.84-23.38.71a3.66,3.66,0,0,0-.16.76,1.87,1.87,0,0,0-.05.58,8.57,8.57,0,0,0,.14,2.39,12.51,12.51,0,0,0,3.81,6.71c.53.5,1.21,1.12,2,1.84a26,26,0,0,1,6.83-10.08,2.76,2.76,0,0,1,3.11-.49,150.36,150.36,0,0,0,28.32,10,2.77,2.77,0,0,1,2,2c1.23,4.7,1.78,12.44-1.2,18.58,1.06.13,2.11.21,3.16.25a2.26,2.26,0,0,1,.37,0,35.63,35.63,0,0,0,11.35-1.41c15.76-4.59,27.23-16,32.15-26.68a2,2,0,0,1,.13-.31,33.34,33.34,0,0,0,1.5-4s0-.06,0-.08C200.87,214,201,213.51,201.09,213.08ZM195,195.71a4.83,4.83,0,0,0-.82-6.19c-13-11.66-31.5-15.69-49.48-10.76C129.46,183,117.13,193,110.47,206.2c5-1.74,12.49-2.24,22.48,2.51,12.34,5.87,31.71,9.3,47.45.7a20.17,20.17,0,0,0-6.73-3.86,2.72,2.72,0,0,1-1.67-4.06,23,23,0,0,1,11.54-9.8,2.76,2.76,0,0,1,1.88.06,32.76,32.76,0,0,1,8.69,5.27C194.43,196.59,194.72,196.16,195,195.71Zm-1.55,9.75a3.77,3.77,0,0,0-1.23-2.81,32.19,32.19,0,0,0-7.85-5.36,18.16,18.16,0,0,0-5.76,4.38,29.64,29.64,0,0,1,8.07,6.15l.09.07.06.07h0v0a.26.26,0,0,1,.09.09s0,0,0,0,0,0,0,0a3.67,3.67,0,0,0,5,.18.45.45,0,0,0,.13-.11A3.62,3.62,0,0,0,193.47,205.46Zm-41.55,46.67c-1.2-.11-2.39-.28-3.59-.49a16.48,16.48,0,0,1-6.24,3.42,17.72,17.72,0,0,1-3.87.68,22.76,22.76,0,0,1-2.48,0c-1.07,4.77-4.36,14.53-14.12,20.95C130.41,275.39,146.47,270.48,151.92,252.13Zm-27.06-6.28c9.51-4.53,7.63-16.24,6.7-20.12-4.12-1.56-7.37-3-9.28-3.86-5.3,5.79-6.31,12.14-2.86,18A20.71,20.71,0,0,0,124.86,245.85ZM102.19,212a56.52,56.52,0,0,1,2.68-6.87,56.45,56.45,0,0,0-8.14,5.56,41.9,41.9,0,0,0-14.9,27.78,62.89,62.89,0,0,1,3.08-6.21,59.59,59.59,0,0,1,7.77-10.69,60.94,60.94,0,0,1,4.72-4.65,54.16,54.16,0,0,1,4.33-3.36,13.64,13.64,0,0,1,.42-1.42Z"/><path class="cls-3" d="M204.66,140.73c-14.12-4.65-33.84.71-44.22,4.25a1.47,1.47,0,0,1-1.56-2.39c2.89-3.28,4.86-7.21-.36-8.62-6.78-1.83-18.72,1.68-25.14,3.89a1.48,1.48,0,0,1-1.7-2.23c30.54-46.37-18.15-63.69-59.1-35.39a2,2,0,0,1-2.82-2.6c4.79-8.53,9.25-19.34-1-16.38S54.51,92.9,52.94,99a2,2,0,0,1-3.63.44c-6.17-11.7-14.39-11.56-20.51-9.09q1.64-2.23,3.51-4.34a4.12,4.12,0,0,0,.28-.31A69.69,69.69,0,0,1,45,75,88.81,88.81,0,0,1,79.75,61a2.68,2.68,0,0,0,1.39-.23,0,0,0,0,0,0,0,101.44,101.44,0,0,1,19.12-1.28,1.87,1.87,0,0,0,.34.08,2.47,2.47,0,0,0,.94,0q4.23.15,8.44.67c2.62.31,5.25.73,7.85,1.24h0a98.6,98.6,0,0,1,20.4,6.33c.63.28,1.29.57,1.91.86,2.53,1.16,5,2.43,7.42,3.81h0a2.9,2.9,0,0,0,3.42-.3,2.74,2.74,0,0,0,.76-2.68.3.3,0,0,0,0-.13s0,0,0,0c-.61-2.14-1.28-4.27-2-6.38s-1.51-4.2-2.39-6.26-1.78-4.1-2.8-6.11-2-4-3.11-5.95A102.53,102.53,0,0,0,134,33.47a60.51,60.51,0,0,0-9.29-9.87,1.38,1.38,0,0,0-1.77,0,1.36,1.36,0,0,0-.12,1.94l.07.09c.34.38.67.77,1,1.18s.67.81,1,1.23c.66.83,1.31,1.7,1.92,2.57,1.27,1.72,2.46,3.51,3.6,5.33,2.25,3.65,4.38,7.38,6.27,11.23S140.4,55,142,59c.75,1.81,1.45,3.64,2.12,5.49-1-.5-2.07-1-3.14-1.45-.85-.39-1.7-.74-2.56-1.09l-.44-.18c-.85-.34-1.71-.67-2.57-1s-1.95-.71-2.94-1c-.83-.29-1.66-.57-2.49-.8-.28-.09-.56-.19-.84-.26-.88-.28-1.73-.53-2.62-.76l-.11,0c-1-.29-2-.54-3-.77s-2-.48-3.06-.69c-.8-.18-1.58-.34-2.37-.48-2.61-.51-5.25-.9-7.88-1.2-1.95-.23-3.9-.39-5.85-.51.31-1.81.7-3.89,1.17-6.15,0,0,0,0,0-.05C108,35.43,113,17.6,119.58,12.9a4.06,4.06,0,0,1,1.62-.7,7.76,7.76,0,0,1,4.39.51c11.09,4,32.5,28.5,46,79.41l0,.14,0,0a1.77,1.77,0,0,0,.12.37,1.13,1.13,0,0,0,.11.22.1.1,0,0,0,0,.08,2.92,2.92,0,0,0,.21.32,0,0,0,0,0,0,0c1.79,2.19,3.51,4.54,5.12,7a50.48,50.48,0,0,0,19,16.33,3.81,3.81,0,0,1,1.92,2,4.14,4.14,0,0,1,.19.53,3.72,3.72,0,0,1-.53,3.13,13.86,13.86,0,0,1-5.74,4.46,2.76,2.76,0,0,0-1.3,4,2.68,2.68,0,0,0,2.52,1.26,1.69,1.69,0,0,0,.56-.11v0c4.38-1.13,10-1.56,12.57,0a2.79,2.79,0,0,1,1.39,1.82C208.33,135.7,206.86,138.26,204.66,140.73Z"/><path class="cls-4" d="M144.09,64.44c-1-.5-2.07-1-3.14-1.45s-2-.86-3-1.27c-.85-.34-1.71-.67-2.57-1s-1.95-.71-2.94-1c-.82-.29-1.66-.55-2.49-.8-.28-.09-.56-.19-.84-.26-.88-.26-1.75-.53-2.62-.76l-.11,0c-1-.28-2-.53-3-.77s-2-.47-3.06-.69c-.8-.18-1.58-.34-2.37-.48-2.61-.51-5.25-.9-7.88-1.2-1.95-.23-3.9-.39-5.85-.51.31-1.81.7-3.89,1.17-6.15,4-9.76,8.71-14.08,8.71-14.08s-2.61-3.31-1.54-5,4.88.43,4.88.43-3.78-6.77-1.61-9.24a2.24,2.24,0,0,1,1.22-.73c2.29-.49,5.93,4.2,5.93,4.2a1.36,1.36,0,0,0-.12,1.94l.07.09c.34.38.67.77,1,1.18s.67.81,1,1.23c.66.83,1.31,1.7,1.92,2.57,1.27,1.72,2.46,3.51,3.6,5.33,2.25,3.65,4.38,7.38,6.27,11.23S140.4,55,142,59C142.72,60.76,143.42,62.59,144.09,64.44Z"/><path class="cls-7" d="M144.09,64.44a100.86,100.86,0,0,0-15.65-6A104.58,104.58,0,0,0,118,55.92a56.58,56.58,0,0,1,8.77-25.46l.13.18c1.27,1.72,2.46,3.51,3.6,5.33q1.49,2.39,2.87,4.83c1.19,2.1,2.34,4.23,3.4,6.4C138.6,51.06,140.4,55,142,59,142.72,60.76,143.42,62.59,144.09,64.44Z"/><path class="cls-4" d="M52.88,58.3c-2.17-2.16-4.35-4.33-6.69-6.37l-2-1.67h0c-1.72-1.43-3.46-2.84-5.23-4.21-1-.73-2-1.47-3-2.19-1.54-1.11-3.11-2.21-4.67-3.24l0,0a1.38,1.38,0,0,1-.4-1.9s-6.2-2.73-7.6-.4,3,6.57,3.45,7c-.39,0-4.12-.53-3.56,2s5.08,5.18,5.08,5.18S25.93,56.93,26.3,66.2c1.54,4.43,3.23,8.83,5,12.93,1.53-1.52,3.14-3,4.84-4.39,1.21-1,2.48-2,3.77-2.91.64-.47,1.28-1,1.94-1.4,0,0,0,0,0,0a86.52,86.52,0,0,1,14.71-8.11C55.38,61,54.16,59.6,52.88,58.3Z"/><path class="cls-7" d="M56.57,62.31A86.79,86.79,0,0,0,47,67.19c-1.74,1-3.43,2.09-5.09,3.23,0,0,0,0,0,0A44.58,44.58,0,0,1,36,43.86c1,.72,2,1.46,3,2.19,1.81,1.4,3.61,2.83,5.36,4.3.63.52,1.26,1,1.87,1.58,2.34,2,4.52,4.21,6.69,6.37C54.16,59.6,55.38,61,56.57,62.31Z"/><path class="cls-4" d="M229.84,238.71h0l-1.61.66c-.63.26-1.27.49-1.9.74"/><path class="cls-4" d="M226.32,240.11c.06,0,1.64,4.66,1.7,4.64,5.71,6.89,12,19.43,13.07,31.21.28,3.18,2.73,5.54,3,8.42.72,6.53,1.09,19.16-4.23,31.67a113.32,113.32,0,0,1-17.5,2.74,92.3,92.3,0,0,0,4.38-10.21,31.33,31.33,0,0,0,2.11-9.7c0-5.19-2.22-3.85-4-1.91a1,1,0,0,1-1.76-.81c.38-4.34.39-11-3.18-11.45.84-1,1.64-2.11,2.39-3.22a42.24,42.24,0,0,0,6.2-13.4,1.4,1.4,0,0,0-.81-1.62,1.37,1.37,0,0,0-1.8.76,46.37,46.37,0,0,1-7,11.72,55.59,55.59,0,0,1-9.88,9.32,73.87,73.87,0,0,1-11.73,7c-.73.36-1.48.71-2.23,1.05-.54.26-1.07.49-1.61.71l-1,.46c-1.39.58-2.8,1.13-4.22,1.65,0-.22,0-.43,0-.65,0-1.69.09-3.41.25-5.1,0-.64.11-1.27.19-1.9a56.91,56.91,0,0,1,1.23-6.63,37.67,37.67,0,0,1,1.62-4.65c.21-.55.46-1.12.71-1.67l0-.09a1.38,1.38,0,0,0-.27-1.55,1.4,1.4,0,0,0-2,0h0a23.41,23.41,0,0,0-4.45,6.34,35.1,35.1,0,0,0-2.4,7.35,47.4,47.4,0,0,0-.84,7.58,57.3,57.3,0,0,0,.29,7.69l.09.39a.92.92,0,0,0,0,.34v.67c0,.44-.1,1-.13,1.55l-.27,1.67-.37,1.7a56.26,56.26,0,0,1-2.09,6.77,43.7,43.7,0,0,1-2.93,6.29,13,13,0,0,1-3.66,4.39,13.6,13.6,0,0,1-2.77.94c-1.08.28-2.24.49-3.41.69-2.35.39-4.75.67-7.17.87-1.4.1-2.81.21-4.21.26-.81,0-1.62.08-2.43.1a33.51,33.51,0,0,0,7.52-7c8-9.71,12.81-23.61,12.43-28.15-.23-2.69-1.47-3.5-2.77-3.57a1.55,1.55,0,0,1-1.16-2.39c3.49-5.42,9.82-15.72,8.92-17.79-.37-.89-1.34-.92-2.37-.63a1.6,1.6,0,0,1-1.84-2.19,51.23,51.23,0,0,1,8.46-13c8-9.18,27-27.61,38.54-31.56l16.57-7.14a23.16,23.16,0,0,1,2.06,1.46,12.06,12.06,0,0,1,1.54,1.87c1,1.34,2.06,2.62,3.17,3.88a35.31,35.31,0,0,1,3.74,5c.45.75-1.45.75-1.84.9l-3.4,1.36-8.92,3.54-6.79,2.7Z"/><path class="cls-4" d="M113.61,281.68c.13,1.46.25,2.91.34,4.38a95,95,0,0,1,0,12.17,109.54,109.54,0,0,1-1.53,12.18c-.35,2-.8,4-1.24,6l-.36,1.5c-.07.28-.11.42-.16.57s-.11.31-.16.47a5,5,0,0,1-1.14,1.59,4.79,4.79,0,0,1-1.67,1,4.32,4.32,0,0,1-.94.24l-.55,0-.78.05-6.31.38c-1.94.13-3.84.25-5.69.31,12-7.92,10.7-25.9,9.93-31.66a.46.46,0,0,1,.8-.36c1.27,1.37,3.27,2.4,3.7-3.93.42-6.11-.68-14.95-1.52-20.44a1.8,1.8,0,0,1,3.15-1.43,23.73,23.73,0,0,1,4.28,7.54,1.37,1.37,0,0,0-1.15,1.6v0c.08.5.16,1,.22,1.5.16,1.06.31,2.1.44,3.15,0,.22,0,.43.07.65C113.45,280.08,113.53,280.88,113.61,281.68Z"/><path class="cls-4" d="M140.85,287.53c-.11.54-.21,1.1-.31,1.64-.81,4.52-1.32,9.06-1.76,13.6a61.25,61.25,0,0,1-19.15-7.3,62.09,62.09,0,0,0-.2-8c0-.66-.11-1.33-.21-2-.14-1-.31-2-.53-3,1.22-.11,2.75-.28,4.5-.58a22.51,22.51,0,0,0,8.33,2.65c3.52.32,3.45,1.18,2.67,1.89a.9.9,0,0,0,.45,1.57A12.77,12.77,0,0,0,140.85,287.53Z"/><path class="cls-4" d="M77.32,254.27c-.14,1-.27,2-.37,3,0,.05,0,.11,0,.16A92.47,92.47,0,0,0,62,242.27a2.81,2.81,0,0,0-2-.57c-1.79.16-7,0-9.24-2.86-1.33-1.65-1.66-4.11-1-7.35,1.88,1.53,5.85,3.86,12.52,3.92a19.35,19.35,0,0,1,7.26,1.33A8.66,8.66,0,0,1,73.08,239c1.09,1.4.42,2.21-.4,2.65a.31.31,0,0,0,.12.57,18.46,18.46,0,0,1,3.27.67A47.72,47.72,0,0,0,77.32,254.27Z"/><path class="cls-8" d="M193.47,205.46a3.62,3.62,0,0,1-1.29,2.74.45.45,0,0,1-.13.11,3.67,3.67,0,0,1-5-.18s0,0,0,0,0,0,0,0a.26.26,0,0,0-.09-.09v0h0l-.06-.07-.09-.07c-.16-.19-.32-.35-.49-.52l5.27-5.32c.24.22.51.43.76.67A3.77,3.77,0,0,1,193.47,205.46Z"/><circle class="cls-4" cx="91.02" cy="138.09" r="6.19" transform="translate(-8.42 5.93) rotate(-3.57)"/><path class="cls-4" d="M43,118.61a22.94,22.94,0,0,1-2.11,8.68,4.53,4.53,0,0,1,.07-9A4.24,4.24,0,0,1,43,118.61Z"/><path class="cls-1" d="M47,67.19c3.41-5.8-.16-13-2.63-16.84.63.52,1.26,1,1.87,1.58,2.34,2,4.52,4.21,6.69,6.37,1.28,1.3,2.5,2.65,3.69,4A86.79,86.79,0,0,0,47,67.19Z"/><path class="cls-1" d="M144.09,64.44a100.86,100.86,0,0,0-15.65-6c7.46-3.53,6.62-11.8,4.88-17.63,1.19,2.1,2.34,4.23,3.4,6.4C138.6,51.06,140.4,55,142,59,142.72,60.76,143.42,62.59,144.09,64.44Z"/><path class="cls-1" d="M74.15,56.58c-2.84.65-5.64,1.39-8.38,2.27-6.71-17.29-30.2-29-35.64-31.57C41.67,29.7,60.88,44.4,74.15,56.58Z"/><path class="cls-1" d="M195.41,148.43c.75-.47,1.6-1.05,2.52-1.72a44.12,44.12,0,0,0,6.73-6c2.2-2.47,3.67-5,3.17-7.06a2.79,2.79,0,0,0-1.39-1.82c-2.61-1.55-8.19-1.12-12.57,0v0a1.69,1.69,0,0,1-.56.11,2.72,2.72,0,0,1-2.92-2.57,2.74,2.74,0,0,1,1.7-2.71,13.86,13.86,0,0,0,5.74-4.46,3.72,3.72,0,0,0,.53-3.13,3.08,3.08,0,0,0-.21-.53h0s0-.09-.08-.15-.08-.16-.13-.24a3.41,3.41,0,0,0-.3-.44l-.15-.19a4.17,4.17,0,0,0-.43-.41,1.49,1.49,0,0,0-.14-.12,4.38,4.38,0,0,0-.69-.42c-.67-.31-1.32-.65-2-1l-.49-.27a51.13,51.13,0,0,1-16.54-15.07c-1.61-2.43-3.33-4.78-5.12-7a0,0,0,0,1,0,0,2.92,2.92,0,0,1-.21-.32.1.1,0,0,1,0-.08,1.13,1.13,0,0,1-.11-.22,1.77,1.77,0,0,1-.12-.37l0,0,0-.14c-13.5-50.91-34.91-75.38-46-79.41a7.76,7.76,0,0,0-4.39-.51c1.92.94,26.21,13.94,42.93,81,0,0,6,13.75,16.62,20.72a26.1,26.1,0,0,0,6.58,3.06,4.38,4.38,0,0,1,1.81,7.35,27.74,27.74,0,0,1-6,4s-7.78,8.68,7.32,9.07,1.46,7.75-3.78,10.76c-4.48,2.58-3.44,8.12,4.31,8.92a2.17,2.17,0,0,1,1.6,3.28c-2.36,3.94-7.28,8.71-17.38,12.87a57.6,57.6,0,0,1,10.42,3.94c14.93-12.91,18.79-19.32,18.67-21.1a2.62,2.62,0,0,0-.47-1.48h0l-.11-.12-.06-.07a1.64,1.64,0,0,0-.25-.22c-1.49-1.13-4.72-.94-6.05-.67a2.78,2.78,0,0,1-2.73-1,3,3,0,0,1-.4-.73A2.78,2.78,0,0,1,195.41,148.43Z"/><path class="cls-1" d="M87.76,211.72c-.74.87-1.45,1.75-2.14,2.67a46.62,46.62,0,0,0-5.08,8.5,44.21,44.21,0,0,0-12.75-8.76A45.37,45.37,0,0,0,87.76,211.72Z"/><path class="cls-1" d="M174.32,205.79a21.15,21.15,0,0,1,6.08,3.62c-15.74,8.6-35.11,5.17-47.45-.7-.34-.16-.67-.32-1-.46,9.4,2,24.41,4.22,35.12.5A68.5,68.5,0,0,0,174.32,205.79Z"/><path class="cls-1" d="M195,195.71c-.3.45-.59.88-.91,1.31a38.69,38.69,0,0,0-3.93-2.84c1.73-2.23,2.57-4.34,2.36-6.08.57.46,1.12.93,1.66,1.42A4.83,4.83,0,0,1,195,195.71Z"/><path class="cls-1" d="M119.46,240a55.35,55.35,0,0,0,9,3.36,12.63,12.63,0,0,1-3.59,2.52A20.39,20.39,0,0,1,119.46,240Z"/><path class="cls-1" d="M148.25,231c.73,4.25,1.78,15.87-7.77,18.78a15.64,15.64,0,0,1-10.09-.86,16.78,16.78,0,0,0,4.25-4.61C148.58,244.85,148.25,231,148.25,231Z"/><path class="cls-1" d="M201.09,213.08c-.11.43-.22.87-.36,1.32,0,0,0,0,0,.08a33.34,33.34,0,0,1-1.5,4,2,2,0,0,0-.13.31c-4.92,10.67-16.39,22.09-32.15,26.68a35.63,35.63,0,0,1-11.35,1.41,2.26,2.26,0,0,0-.37,0c-1.05,0-2.1-.12-3.16-.25.29-.61.56-1.23.79-1.87,14.44-.83,36.42-10.46,34.62-20.9-.91-5.3-4.86-7.11-8.64-7.58a43.29,43.29,0,0,0,5.88-3,9.06,9.06,0,0,0,5.5,1.41,9.44,9.44,0,0,0,5.43-2.2l.12-.11a9.13,9.13,0,0,0,2.16-11.23q.83-1.09,1.59-2.25C202.36,203.69,202,209.06,201.09,213.08Z"/><path class="cls-1" d="M193.47,205.46a3.62,3.62,0,0,1-1.29,2.74.45.45,0,0,1-.13.11,3.69,3.69,0,0,1-3.13.84c3.49-3.47-.32-8.58-2-10.54a35,35,0,0,1,4.61,3.37c.24.22.51.43.76.67A3.77,3.77,0,0,1,193.47,205.46Z"/><path class="cls-1" d="M151.92,252.13a32.23,32.23,0,0,1-14.37,18.95A19,19,0,0,0,142.24,255a16.38,16.38,0,0,0,6.09-3.37C149.53,251.85,150.72,252,151.92,252.13Z"/><path class="cls-1" d="M124.11,267.18c1.58-5.83.24-11.68-1.57-16.2l.47.32a27.35,27.35,0,0,0,7.3,3.45A29.93,29.93,0,0,1,124.11,267.18Z"/><path class="cls-1" d="M203.11,223.14c-5.25,29.4-37.18,33.16-37.18,33.16-8.54,16.72-26.11,21.84-33.88,23.33,9.83-3.51,21.23-11.05,25.51-27.25.69,0,1.37,0,2.06-.08a40.49,40.49,0,0,0,8.86-1.54C183.55,246.36,196.69,235.62,203.11,223.14Z"/><path class="cls-1" d="M239.9,316.05a113.32,113.32,0,0,1-17.5,2.74,95.43,95.43,0,0,1-16.47,0s11.64-2.88,20.85-10.17c7.46-5.87,13.34-14.62,10.21-27.05-5.46-21.79-22-33.77-27.5-36.78,5.12-.94,11.51-3.83,16.83-4.64.06,0,0,0,0,0,8.64,6.79,13.4,22.95,17.2,34.5,2.31,2.59.3,6.89.61,9.77C244.85,290.91,245.22,303.54,239.9,316.05Z"/><path class="cls-1" d="M185.53,283.23a35.1,35.1,0,0,0-2.4,7.35,47.4,47.4,0,0,0-.84,7.58,57.3,57.3,0,0,0,.29,7.69l.09.39a.92.92,0,0,0,0,.34v.67c0,.44-.1,1-.13,1.55l-.27,1.67-.37,1.7a56.26,56.26,0,0,1-2.09,6.77,43.7,43.7,0,0,1-2.93,6.29,13,13,0,0,1-3.66,4.39,13.6,13.6,0,0,1-2.77.94c-1.08.28-2.24.49-3.41.69-2.35.39-4.75.67-7.17.87-1.4.1-2.81.21-4.21.26-.81,0-1.62.08-2.43.1a33.51,33.51,0,0,0,7.52-7c11.52-7,14.48-19.08,16.3-28.75A29.84,29.84,0,0,1,190,276.89,23.41,23.41,0,0,0,185.53,283.23Z"/><path class="cls-1" d="M225.9,267.23a46.37,46.37,0,0,1-7,11.72,55.59,55.59,0,0,1-9.88,9.32,73.87,73.87,0,0,1-11.73,7c-.73.36-1.48.71-2.23,1.05-.54.26-1.07.49-1.61.71l-1,.46c-1.39.58-2.8,1.13-4.21,1.66h0c0-.22,0-.43,0-.65,0-1.69.09-3.41.25-5.1,0-.64.11-1.27.19-1.9a56.91,56.91,0,0,1,1.23-6.63,37.67,37.67,0,0,1,1.62-4.65C203.61,298.12,225.9,267.23,225.9,267.23Z"/><path class="cls-1" d="M114,286.06a95,95,0,0,1,0,12.17,109.54,109.54,0,0,1-1.53,12.18c-.35,2-.8,4-1.24,6l-.36,1.5c-.07.28-.11.42-.16.57s-.11.31-.16.47a5,5,0,0,1-1.14,1.59,4.79,4.79,0,0,1-1.67,1,4.32,4.32,0,0,1-.94.24l-.55,0-.78.05-6.31.38c-1.94.13-3.84.25-5.69.31a48.65,48.65,0,0,1-6.41-.17,20.43,20.43,0,0,1-5.33-1.16,6.51,6.51,0,0,1-2.41-1.54c4.2,0,37.78-1.82,33.34-45.79.08.5.16,1,.22,1.5.16,1.06.31,2.1.44,3.15,0,.22,0,.43.07.65.11.8.19,1.6.27,2.4C113.74,283.14,113.86,284.59,114,286.06Z"/><path class="cls-1" d="M77.32,254.27c-.14,1-.27,2-.37,3,0,.05,0,.11,0,.16A92.47,92.47,0,0,0,62,242.27a2.81,2.81,0,0,0-2-.57c-1.79.16-7,0-9.24-2.86A5.84,5.84,0,0,1,49.6,236c3.44,4,10.13,5,18.25,2.13,6.9-2.42,4.72-11.23,2.89-16.1A38.66,38.66,0,0,1,77,227.1l1.38,1.39a48.88,48.88,0,0,0-1,25.78Z"/><path class="cls-1" d="M140.54,289.17c-.81,4.52-1.32,9.06-1.76,13.6a61.25,61.25,0,0,1-19.15-7.3,62.09,62.09,0,0,0-.2-8C123.6,290.54,133.16,296,140.54,289.17Z"/><path class="cls-1" d="M229.84,238.71h0l-1.61.66c-.63.26-1.27.49-1.9.74A131.13,131.13,0,0,1,209,244.87"/><path class="cls-1" d="M62.49,175.64l0,0a18.25,18.25,0,0,1-3.29,2,15.47,15.47,0,0,1-2.08.86,17.34,17.34,0,0,1-11.48,0,18,18,0,0,1-3.91-1.92,20.75,20.75,0,0,1-3.46-2.79A52.37,52.37,0,0,1,32,166.74l-.14-.19a2.74,2.74,0,0,0-3.39-.93v0l-2.21,1c1.85-2.45,1.76-5.68,1.54-7.42a26.38,26.38,0,0,0,3.63,1.54,24.53,24.53,0,0,0,8.45,1.38c-1,1.71-1,4.2,1.49,7.79C47.8,179.07,62.49,175.64,62.49,175.64Z"/><path class="cls-1" d="M33.14,177.16a40.11,40.11,0,0,1,1.76,5.46c-3.57-5.12-6.87-6-8.93-5.88a22.45,22.45,0,0,1-.69-3.66,2.27,2.27,0,0,0,.59-.19l2.69-1.24c.61.87,1.24,1.66,1.87,2.46C31.29,175.17,32.18,176.19,33.14,177.16Z"/><path class="cls-1" d="M57.85,194.91a9.09,9.09,0,0,1-3.79,2.93,8.38,8.38,0,0,0,1.74-4,4.58,4.58,0,0,0-5.33-4.88,15.79,15.79,0,0,1-9.08-1.5c-.21-1.69-.49-3.25-.8-4.68A19.25,19.25,0,0,0,43.84,184a20.15,20.15,0,0,0,11.54.06,19,19,0,0,0,2.35-.91,13.09,13.09,0,0,1,1.12,1.92A9.37,9.37,0,0,1,57.85,194.91Z"/><path class="cls-1" d="M104.87,205.11a56.52,56.52,0,0,0-2.68,6.87l0,.14a13.64,13.64,0,0,0-.42,1.42,54.16,54.16,0,0,0-4.33,3.36,60.94,60.94,0,0,0-4.72,4.65,59.59,59.59,0,0,0-7.77,10.69,68,68,0,0,0-3.07,6.16c.34-.91,5.7-15.72,11.83-20.2a21.58,21.58,0,0,0,7.26-10.66C102.31,206.61,103.65,205.79,104.87,205.11Z"/><path class="cls-9" d="M147.57,72.49C146,71.85,80.88,44.85,28.8,90.39q1.64-2.23,3.51-4.34a4.12,4.12,0,0,0,.28-.31A69.69,69.69,0,0,1,45,75,88.81,88.81,0,0,1,79.75,61a2.68,2.68,0,0,0,1.39-.23,0,0,0,0,0,0,0,101.44,101.44,0,0,1,19.12-1.28,1.87,1.87,0,0,0,.34.08,2.47,2.47,0,0,0,.94,0q4.23.15,8.44.67c2.62.31,5.25.73,7.85,1.24h0a98.6,98.6,0,0,1,20.4,6.33c.63.28,1.29.57,1.91.86C142.68,69.84,145.16,71.11,147.57,72.49Z"/><path class="cls-9" d="M192.5,188.08c-1.56-.89-44.86-24.94-82,18.12,6.66-13.25,19-23.24,34.25-27.44C161.92,174,179.6,177.52,192.5,188.08Z"/><path class="cls-9" d="M114.25,223.73a19.41,19.41,0,0,0-1.3,2.93c-.8-.72-1.48-1.34-2-1.84a12.51,12.51,0,0,1-3.81-6.71,8.57,8.57,0,0,1-.14-2.39,1.87,1.87,0,0,1,.05-.58,3.24,3.24,0,0,1,.12-.62.83.83,0,0,0,0-.14S109.7,221.59,114.25,223.73Z"/><path class="cls-9" d="M131.56,225.73a24.48,24.48,0,0,1,.56,3.07,33.05,33.05,0,0,1-8.35-3.44S117.41,230,119.46,240c0,0,0,0,0-.05-3.45-5.91-2.44-12.26,2.86-18C124.19,222.74,127.44,224.17,131.56,225.73Z"/><path class="cls-9" d="M148.25,231a71.39,71.39,0,0,1-10.48-1c-.05-.74-.12-1.46-.21-2.15C140.87,229,144.5,230.08,148.25,231Z"/><path class="cls-9" d="M101.71,220.83s-22.51,20.64-17.8,86a13.87,13.87,0,0,1-2.85,9.5,9.15,9.15,0,0,1-2.3,2.15,2.61,2.61,0,0,1,.1-.76,6.22,6.22,0,0,1,.3-.89l.26-.46.39-.75c.18-.36.37-.72.52-1.09a7.32,7.32,0,0,0,.32-1l.27-1,.13-.91a29,29,0,0,0,.32-3.48c.16-4.42,0-8.6,0-12.79s-.06-8.34,0-12.5q.28-12.48,1.64-24.9a59.07,59.07,0,0,1,7-22.79A55.53,55.53,0,0,1,97,225.37a58.16,58.16,0,0,1,4.19-4.27l.1-.09Z"/><path class="cls-9" d="M63.23,218.19c-7.95,3.22-13.06,12.63-13.4,13.28a17.38,17.38,0,0,1,.54-2.12A28.62,28.62,0,0,1,59,216.72c1,.35,2,.68,3,1C62.38,217.87,62.8,218,63.23,218.19Z"/><path class="cls-9" d="M145.66,321.86S143.78,328,139,331.3a4.59,4.59,0,0,1,.83-1.65,20,20,0,0,0,3.06-8.18c.21-1.36.32-2.71.4-4s.15-2.48.24-3.72c.64-10,1.68-19.89.91-30C144.46,283.76,149,307.35,145.66,321.86Z"/><path class="cls-9" d="M205.54,318.53a.59.59,0,0,1-.08-.45A25.06,25.06,0,0,0,202.68,299c.83-.46,1.64-.93,2.43-1.44a17.6,17.6,0,0,0,.93,5C207.41,306.83,207.82,313.64,205.54,318.53Z"/><path class="cls-9" d="M204.92,220.7l-.93.68a64.49,64.49,0,0,0,11.17-9.78"/><path class="cls-10" d="M241.58,279.63l4-6.54c1.26-2.1,2.65-4.16,3.77-6.33a35.25,35.25,0,0,0,2.45-6.54,36,36,0,0,0,1.39-10.48c0-2.05.1-4.1-.09-6.14a23.72,23.72,0,0,0-2-7.38,30.13,30.13,0,0,0-1.78-3.43c-.17-.27-.94-1.45-1.32-1.3l-22.72,9.17Z"/><path class="cls-3" d="M237.55,219.12s-11.71-5-19.71-6.65A13.14,13.14,0,0,0,207.06,215s-1.75,1.06-3.25,6.39,16.87,5,16.87,5Z"/><line class="cls-2" x1="185.26" y1="291.88" x2="186.89" y2="296.16"/></svg>