<svg id="Layer_1" data-name="Layer 1" xmlns="http://www.w3.org/2000/svg" viewBox="0 0 125.96 152.87"><defs><style>.cls-1{fill:none;}.cls-2{fill:#eeb569;}.cls-3{fill:#410000;}.cls-4{fill:#fff;}.cls-5{opacity:0.2;}.cls-6{fill:#fffcfc;opacity:0.34;}</style></defs><title>尾巴</title><path class="cls-1" d="M99.15,46l-.84-1.67L98.17,44l.14.28Z"/><path class="cls-1" d="M105.13,73.06c0,1.24-.07,2.49-.18,3.73.11-1.24.17-2.49.18-3.73a40.07,40.07,0,0,0-.12-5.59A40.07,40.07,0,0,1,105.13,73.06Z"/><path class="cls-1" d="M104.58,63.76c-.28-1.85-.62-3.69-1-5.52-.18-.59-.35-1.19-.52-1.79.17.6.34,1.2.52,1.79C104,60.07,104.3,61.91,104.58,63.76Z"/><path class="cls-1" d="M92.46,107.69a62.46,62.46,0,0,0,4.26-6.24,63.24,63.24,0,0,0,4.21-8.39,63.24,63.24,0,0,1-4.21,8.39A62.46,62.46,0,0,1,92.46,107.69Z"/><path class="cls-1" d="M74.2,124.33c.51-.34,1-.67,1.52-1a76.54,76.54,0,0,0,10.4-8.55,76.54,76.54,0,0,1-10.4,8.55C75.22,123.66,74.71,124,74.2,124.33Z"/><path class="cls-1" d="M47.76,137.26q-3.72,1.34-7.53,2.51,3.81-1.17,7.53-2.51c1.12-.44,2.25-.86,3.37-1.32l1.18-.49-1.18.49C50,136.4,48.88,136.82,47.76,137.26Z"/><path class="cls-1" d="M103.33,86c-.32,1.21-.68,2.4-1.09,3.58C102.65,88.36,103,87.17,103.33,86Z"/><path class="cls-1" d="M16.47,145.84a2.69,2.69,0,0,0-.57.34A2.69,2.69,0,0,1,16.47,145.84Z"/><path class="cls-1" d="M105,76.79c-.11,1.24-.26,2.47-.45,3.7C104.69,79.26,104.84,78,105,76.79Z"/><path class="cls-1" d="M41.52,42.78c-.15-.73-.31-1.45-.49-2.17C41.21,41.33,41.37,42.05,41.52,42.78Z"/><path class="cls-1" d="M43.08,147.47l2.2-.51Z"/><path class="cls-1" d="M39.31,148.24l2.07-.41Z"/><path class="cls-1" d="M17.46,150.58l3.48-.15Z"/><path class="cls-1" d="M35.57,148.89l2-.33Z"/><path class="cls-1" d="M15,148.63l.06.22Z"/><path class="cls-1" d="M44.64,13.07h0Z"/><path class="cls-1" d="M38.51,13.29l-.46,0h0Z"/><path class="cls-1" d="M33.81,13.8l-.69.09.69-.09Z"/><path class="cls-1" d="M42.56,13.1c-.4,0-.79,0-1.18,0,.39,0,.78,0,1.17,0Z"/><path class="cls-1" d="M37.55,13.38h0q-1.41.12-2.82.3h0Q36.14,13.5,37.55,13.38Z"/><path class="cls-1" d="M27.92,86.59A70.21,70.21,0,0,0,34.4,78a70.21,70.21,0,0,1-6.48,8.61A95.52,95.52,0,0,1,15.84,98.08,95.52,95.52,0,0,0,27.92,86.59Z"/><path class="cls-1" d="M27.09,15a83.77,83.77,0,0,1,6.73,9.25A84.35,84.35,0,0,0,27.15,15Z"/><path class="cls-1" d="M42.15,57.34c-.15,1.24-.37,2.48-.64,3.71a46.83,46.83,0,0,1-1.5,5.4,46.83,46.83,0,0,0,1.5-5.4C41.78,59.82,42,58.58,42.15,57.34Z"/><path class="cls-1" d="M94.93,38.73c-.17-.26-.33-.52-.51-.78-.4-.48-.78-1-1.16-1.48.38.5.76,1,1.16,1.48C94.6,38.21,94.76,38.47,94.93,38.73Z"/><path class="cls-1" d="M14.08,86.71C22.89,79,31.89,69,32.89,56c1-15-6-28-17-38-5-5,0-11,5-12,21-6,42-4,61,6,9,5,16,12,22,20,16,22,16,50,3,73-11,18-28,30-46.85,37.37"/><path class="cls-1" d="M14.19,86.61c.89-.78,1.8-1.57,2.66-2.38-1,.8-1.93,1.65-2.88,2.5"/><path class="cls-1" d="M173.57,153.78C173.89,100,173.89,47,173.89-7c-52-3-107,1-160-2-1,0-3,1-3,2,2,22,0,44,.64,65.73"/><path class="cls-1" d="M47.15,13.13Z"/><path class="cls-1" d="M89.66,32.19c.45.43.87.88,1.28,1.35-.41-.47-.83-.92-1.28-1.35a36.68,36.68,0,0,0-2.6-2.69A36.68,36.68,0,0,1,89.66,32.19Z"/><path class="cls-2" d="M38.05,13.33h0l-.5.05h0Z"/><path class="cls-2" d="M64.07,109.11C75.19,93.38,75,85,70.49,86.29a1.67,1.67,0,0,1-2.16-1.89c1.82-9,5.9-32,1-35.33-3.38-2.33-6.2-.06-8,2.41a1.66,1.66,0,0,1-3-.62C56.48,41.31,49.82,20.2,27.09,15h0l.06,0c2.11,1.69,58.53,48-15.62,87.18v35.64q5.57-2.52,11.36-4.52C37.14,128.43,56.27,120.15,64.07,109.11Z"/><path class="cls-2" d="M34.73,13.68h0l-.92.12h0Z"/><path class="cls-3" d="M114.14,55.77a72.38,72.38,0,0,0-2.66-8.47c-.55-1.36-1-2.78-1.66-4.11l-2-4A69.43,69.43,0,0,0,84,13.51,72.54,72.54,0,0,0,50.7,2.92,88.73,88.73,0,0,0,16.6,7.6,5,5,0,0,0,13.77,10a4.89,4.89,0,0,0,.81,5.63v0c5.93,6.13,11.12,12.89,14.49,20.26A37,37,0,0,1,32,59C30.32,66.7,26,73.88,20.57,80.14a80.28,80.28,0,0,1-7.33,7.31.13.13,0,0,1,0-.06,6.65,6.65,0,0,1-1.72,1.28v12.77c1.44-1.09,2.88-2.2,4.31-3.36A95.52,95.52,0,0,0,27.92,86.59,70.21,70.21,0,0,0,34.4,78c.65-1,1.27-2.07,1.86-3.14s1.15-2.16,1.67-3.27,1-2.23,1.45-3.38q.33-.87.63-1.74a46.83,46.83,0,0,0,1.5-5.4c.27-1.23.49-2.47.64-3.71.08-.62.14-1.25.19-1.87.1-1.25.14-2.5.13-3.75,0-.63,0-1.25,0-1.88a47.66,47.66,0,0,0-.9-7.06c-.15-.73-.31-1.45-.49-2.17-.3-1.2-.64-2.39-1-3.56s-.81-2.32-1.28-3.44c-.23-.56-.47-1.12-.72-1.67a70.54,70.54,0,0,0-4.18-7.72A83.77,83.77,0,0,0,27.09,15h0q3-.65,6-1.08l.69-.09.92-.12q1.41-.18,2.82-.3l.5-.05.46,0c1-.08,1.91-.13,2.87-.17.39,0,.78,0,1.18,0s.91,0,1.37,0h.72c.77,0,1.55,0,2.33,0h.17c.93,0,1.86.09,2.78.18,1.26.11,2.51.25,3.76.43s2.49.39,3.72.65a64.79,64.79,0,0,1,7.27,1.92,63.45,63.45,0,0,1,7,2.75,62.08,62.08,0,0,1,6.58,3.54c2,1.41,4.09,2.87,6,4.44,1,.78,1.91,1.6,2.81,2.46a36.68,36.68,0,0,1,2.6,2.69c.45.43.87.88,1.28,1.35.82.94,1.57,1.94,2.32,2.93.38.5.76,1,1.16,1.48.18.26.34.52.51.78.51.78,1,1.57,1.5,2.35a31.25,31.25,0,0,1,1.74,3l.14.28L100,47.65c.51,1.12.91,2.32,1.37,3.47a25.83,25.83,0,0,1,1.22,3.53c.17.59.33,1.2.49,1.8s.34,1.2.52,1.79c.36,1.83.7,3.67,1,5.52.18,1.23.33,2.47.43,3.71a40.07,40.07,0,0,1,.12,5.59c0,1.24-.07,2.49-.18,3.73s-.26,2.47-.45,3.7c-.3,1.84-.69,3.67-1.17,5.47-.32,1.21-.68,2.4-1.09,3.58s-.83,2.36-1.31,3.52a63.24,63.24,0,0,1-4.21,8.39,62.46,62.46,0,0,1-4.26,6.24,67.26,67.26,0,0,1-6.34,7.07,76.54,76.54,0,0,1-10.4,8.55c-.5.35-1,.68-1.52,1a98.9,98.9,0,0,1-9,5.27c-2.72,1.41-5.52,2.72-8.36,4-.95.41-1.9.82-2.86,1.21h0c-.56.24-1.12.46-1.68.68l-1.18.49c-1.12.46-2.25.88-3.37,1.32q-3.72,1.34-7.53,2.51c-7.6,2.37-15.42,4.29-23.34,5.95a3.31,3.31,0,0,0-.42.12,2.69,2.69,0,0,0-.57.34,2.46,2.46,0,0,0-1,2,3.11,3.11,0,0,0,.06.44l.06.22a2.4,2.4,0,0,0,2.42,1.73l3.48-.15c.95-.05,1.89-.11,2.84-.19,3.93-.27,7.87-.72,11.79-1.35l2-.33,1.74-.32,2.07-.41,1.7-.36,2.2-.51,1.52-.37c1.14-.29,2.28-.6,3.41-.92h0c1.88-.72,3.9-.85,5.78-1.55,1.1-.41,2.07-.8,3.06-1.11h0a2.62,2.62,0,0,1,1-.47l-.06-.19A102.18,102.18,0,0,0,81.3,131.5a81.37,81.37,0,0,0,24.2-24.7,67.85,67.85,0,0,0,8.64-51Z"/><path class="cls-4" d="M43.93,13.07h0Z"/><path class="cls-4" d="M47,13.12h0Z"/><path class="cls-4" d="M15,148.85l-.06-.22a3.11,3.11,0,0,1-.06-.44,2.46,2.46,0,0,1,1-2,2.69,2.69,0,0,1,.57-.34,3.31,3.31,0,0,1,.42-.12s64.3-18.13,70.92-52.85C93.59,62.45,74,15.39,41.54,13.12l1,0c-.39,0-.78,0-1.17,0-1,0-1.91.09-2.87.17l-.46,0-.5.05q-1.41.12-2.82.3l-.92.12-.69.09q-3,.43-6,1.08C49.82,20.2,56.48,41.31,58.33,50.86a1.66,1.66,0,0,0,3,.62c1.82-2.47,4.64-4.74,8-2.41,4.9,3.35.82,26.37-1,35.33a1.67,1.67,0,0,0,2.16,1.89c4.52-1.25,4.7,7.09-6.42,22.82-7.8,11-26.93,19.32-41.18,24.21q-5.79,2-11.36,4.52"/><path class="cls-2" d="M49.75,13.3c-.87-.08-1.73-.13-2.6-.17h0C48,13.17,48.88,13.22,49.75,13.3Z"/><path class="cls-5" d="M49.75,13.3c-.87-.08-1.73-.13-2.6-.17h0C48,13.17,48.88,13.22,49.75,13.3Z"/><path class="cls-2" d="M47,13.12h0c-.78,0-1.56,0-2.33,0h0C45.42,13.08,46.2,13.09,47,13.12Z"/><path class="cls-5" d="M47,13.12h0c-.78,0-1.56,0-2.33,0h0C45.42,13.08,46.2,13.09,47,13.12Z"/><path class="cls-2" d="M43.93,13.07h0c-.46,0-.92,0-1.37,0h0Z"/><path class="cls-5" d="M43.93,13.07h0c-.46,0-.92,0-1.37,0h0Z"/><path class="cls-3" d="M44.65,13.07c.77,0,1.55,0,2.33,0C46.2,13.09,45.42,13.07,44.65,13.07Z"/><path class="cls-5" d="M44.65,13.07c.77,0,1.55,0,2.33,0C46.2,13.09,45.42,13.07,44.65,13.07Z"/><path class="cls-3" d="M42.56,13.1c.45,0,.91,0,1.37,0C43.47,13.07,43,13.08,42.56,13.1Z"/><path class="cls-5" d="M42.56,13.1c.45,0,.91,0,1.37,0C43.47,13.07,43,13.08,42.56,13.1Z"/><path class="cls-3" d="M49.93,13.31c-.92-.09-1.85-.14-2.78-.18.87,0,1.73.09,2.6.17Z"/><path class="cls-5" d="M49.93,13.31c-.92-.09-1.85-.14-2.78-.18.87,0,1.73.09,2.6.17Z"/><path class="cls-4" d="M47.15,13.13H47c-.78,0-1.56,0-2.34,0h-.71l-1.38,0-1,0C74,15.39,93.59,62.45,87.81,92.87c-6.62,34.72-70.92,52.85-70.92,52.85,7.92-1.66,15.74-3.58,23.34-5.95q3.81-1.17,7.53-2.51c1.12-.44,2.25-.86,3.37-1.32l1.18-.49c.56-.22,1.12-.44,1.68-.68h0c1-.39,1.91-.8,2.86-1.21,2.84-1.24,5.64-2.55,8.36-4a98.9,98.9,0,0,0,9-5.27c.51-.34,1-.67,1.52-1a76.54,76.54,0,0,0,10.4-8.55,67.26,67.26,0,0,0,6.34-7.07,62.46,62.46,0,0,0,4.26-6.24,63.24,63.24,0,0,0,4.21-8.39c.48-1.16.91-2.33,1.31-3.52s.77-2.37,1.09-3.58c.48-1.8.87-3.63,1.17-5.47.19-1.23.34-2.46.45-3.7s.17-2.49.18-3.73a40.07,40.07,0,0,0-.12-5.59c-.1-1.24-.25-2.48-.43-3.71-.28-1.85-.62-3.69-1-5.52-.18-.59-.35-1.19-.52-1.79s-.32-1.21-.49-1.8a25.83,25.83,0,0,0-1.22-3.53c-.46-1.15-.86-2.35-1.37-3.47L99.15,46l-.84-1.67L98.17,44a31.25,31.25,0,0,0-1.74-3c-.51-.78-1-1.57-1.5-2.35-.17-.26-.33-.52-.51-.78-.4-.48-.78-1-1.16-1.48-.75-1-1.5-2-2.32-2.93-.41-.47-.83-.92-1.28-1.35a36.68,36.68,0,0,0-2.6-2.69c-.9-.86-1.84-1.68-2.81-2.46-1.93-1.57-4-3-6-4.44a62.08,62.08,0,0,0-6.58-3.54,63.45,63.45,0,0,0-7-2.75,64.79,64.79,0,0,0-7.27-1.92c-1.23-.26-2.47-.47-3.72-.65s-2.5-.32-3.76-.43h-.18C48.88,13.22,48,13.17,47.15,13.13Z"/><path class="cls-5" d="M47.15,13.13H47c-.78,0-1.56,0-2.34,0h-.71l-1.38,0-1,0C74,15.39,93.59,62.45,87.81,92.87c-6.62,34.72-70.92,52.85-70.92,52.85,7.92-1.66,15.74-3.58,23.34-5.95q3.81-1.17,7.53-2.51c1.12-.44,2.25-.86,3.37-1.32l1.18-.49c.56-.22,1.12-.44,1.68-.68h0c1-.39,1.91-.8,2.86-1.21,2.84-1.24,5.64-2.55,8.36-4a98.9,98.9,0,0,0,9-5.27c.51-.34,1-.67,1.52-1a76.54,76.54,0,0,0,10.4-8.55,67.26,67.26,0,0,0,6.34-7.07,62.46,62.46,0,0,0,4.26-6.24,63.24,63.24,0,0,0,4.21-8.39c.48-1.16.91-2.33,1.31-3.52s.77-2.37,1.09-3.58c.48-1.8.87-3.63,1.17-5.47.19-1.23.34-2.46.45-3.7s.17-2.49.18-3.73a40.07,40.07,0,0,0-.12-5.59c-.1-1.24-.25-2.48-.43-3.71-.28-1.85-.62-3.69-1-5.52-.18-.59-.35-1.19-.52-1.79s-.32-1.21-.49-1.8a25.83,25.83,0,0,0-1.22-3.53c-.46-1.15-.86-2.35-1.37-3.47L99.15,46l-.84-1.67L98.17,44a31.25,31.25,0,0,0-1.74-3c-.51-.78-1-1.57-1.5-2.35-.17-.26-.33-.52-.51-.78-.4-.48-.78-1-1.16-1.48-.75-1-1.5-2-2.32-2.93-.41-.47-.83-.92-1.28-1.35a36.68,36.68,0,0,0-2.6-2.69c-.9-.86-1.84-1.68-2.81-2.46-1.93-1.57-4-3-6-4.44a62.08,62.08,0,0,0-6.58-3.54,63.45,63.45,0,0,0-7-2.75,64.79,64.79,0,0,0-7.27-1.92c-1.23-.26-2.47-.47-3.72-.65s-2.5-.32-3.76-.43h-.18C48.88,13.22,48,13.17,47.15,13.13Z"/><path class="cls-2" d="M27.15,15a84.35,84.35,0,0,1,6.67,9.2A68.88,68.88,0,0,1,38,31.94c.25.55.49,1.11.72,1.67.47,1.12.9,2.27,1.28,3.44s.73,2.36,1,3.56c.18.72.34,1.44.49,2.17a47.66,47.66,0,0,1,.9,7.06c0,.63,0,1.25,0,1.88,0,1.25,0,2.5-.13,3.75-.05.62-.11,1.25-.19,1.87-.15,1.24-.37,2.48-.64,3.71a46.83,46.83,0,0,1-1.5,5.4q-.3.87-.63,1.74c-.45,1.15-.93,2.28-1.45,3.38s-1.08,2.2-1.67,3.27S35.05,77,34.4,78a70.21,70.21,0,0,1-6.48,8.61A95.52,95.52,0,0,1,15.84,98.08c-1.43,1.16-2.87,2.27-4.31,3.36v.76C85.68,63,29.26,16.71,27.15,15Z"/><path class="cls-6" d="M27.15,15a84.35,84.35,0,0,1,6.67,9.2A68.88,68.88,0,0,1,38,31.94c.25.55.49,1.11.72,1.67.47,1.12.9,2.27,1.28,3.44s.73,2.36,1,3.56c.18.72.34,1.44.49,2.17a47.66,47.66,0,0,1,.9,7.06c0,.63,0,1.25,0,1.88,0,1.25,0,2.5-.13,3.75-.05.62-.11,1.25-.19,1.87-.15,1.24-.37,2.48-.64,3.71a46.83,46.83,0,0,1-1.5,5.4q-.3.87-.63,1.74c-.45,1.15-.93,2.28-1.45,3.38s-1.08,2.2-1.67,3.27S35.05,77,34.4,78a70.21,70.21,0,0,1-6.48,8.61A95.52,95.52,0,0,1,15.84,98.08c-1.43,1.16-2.87,2.27-4.31,3.36v.76C85.68,63,29.26,16.71,27.15,15Z"/><path class="cls-3" d="M40,37.05c-.38-1.17-.81-2.32-1.28-3.44C39.19,34.73,39.62,35.88,40,37.05Z"/><path class="cls-6" d="M40,37.05c-.38-1.17-.81-2.32-1.28-3.44C39.19,34.73,39.62,35.88,40,37.05Z"/><path class="cls-3" d="M36.26,74.84c.59-1.07,1.15-2.16,1.67-3.27C37.41,72.68,36.85,73.77,36.26,74.84Z"/><path class="cls-6" d="M36.26,74.84c.59-1.07,1.15-2.16,1.67-3.27C37.41,72.68,36.85,73.77,36.26,74.84Z"/><path class="cls-3" d="M42.42,49.84a47.66,47.66,0,0,0-.9-7.06A47.66,47.66,0,0,1,42.42,49.84Z"/><path class="cls-6" d="M42.42,49.84a47.66,47.66,0,0,0-.9-7.06A47.66,47.66,0,0,1,42.42,49.84Z"/><path class="cls-3" d="M33.82,24.22A70.54,70.54,0,0,1,38,31.94c.25.55.49,1.11.72,1.67-.23-.56-.47-1.12-.72-1.67A68.88,68.88,0,0,0,33.82,24.22Z"/><path class="cls-6" d="M33.82,24.22A70.54,70.54,0,0,1,38,31.94c.25.55.49,1.11.72,1.67-.23-.56-.47-1.12-.72-1.67A68.88,68.88,0,0,0,33.82,24.22Z"/><path class="cls-3" d="M42.34,55.47c.1-1.25.14-2.5.13-3.75C42.48,53,42.44,54.22,42.34,55.47Z"/><path class="cls-6" d="M42.34,55.47c.1-1.25.14-2.5.13-3.75C42.48,53,42.44,54.22,42.34,55.47Z"/><path class="cls-3" d="M37.93,71.57c.52-1.1,1-2.23,1.45-3.38C38.93,69.34,38.45,70.47,37.93,71.57Z"/><path class="cls-6" d="M37.93,71.57c.52-1.1,1-2.23,1.45-3.38C38.93,69.34,38.45,70.47,37.93,71.57Z"/></svg>