<svg width="26" height="27" viewBox="0 0 26 27" fill="none" xmlns="http://www.w3.org/2000/svg">
<path d="M21.1251 14.0416C21.1251 12.5466 22.3384 11.3333 23.8334 11.3333V10.25C23.8334 5.91665 22.7501 4.83331 18.4167 4.83331H7.58341C3.25008 4.83331 2.16675 5.91665 2.16675 10.25V10.7916C3.66175 10.7916 4.87508 12.005 4.87508 13.5C4.87508 14.995 3.66175 16.2083 2.16675 16.2083V16.75C2.16675 21.0833 3.25008 22.1666 7.58341 22.1666H18.4167C22.7501 22.1666 23.8334 21.0833 23.8334 16.75C22.3384 16.75 21.1251 15.5366 21.1251 14.0416Z" stroke="#EF7A70" stroke-width="3" stroke-linecap="round" stroke-linejoin="round"/>
<path d="M10.8333 4.83331L10.8333 22.1666" stroke="#EF7A70" stroke-width="3" stroke-linecap="round" stroke-linejoin="round" stroke-dasharray="5 5"/>
</svg>
