<svg width="43" height="36" viewBox="0 0 43 36" fill="none" xmlns="http://www.w3.org/2000/svg">
<path d="M21.5028 15.5008C14.991 15.5008 5.82425 25.0864 5.82425 31.1408C5.75205 33.8673 7.9459 35.5 11.6412 35.5C15.6449 35.5 18.2949 33.5391 21.5028 33.5391C24.7436 33.5391 27.4018 35.5 31.3645 35.5C34.9827 35.5 37.2504 33.8688 37.2504 31.1447C37.1814 25.0942 28.0171 15.5008 21.5028 15.5008ZM9.42597 14.5165C8.57518 11.8119 5.93911 10.0542 3.54999 10.601C1.16087 11.1479 -0.0832487 13.7822 0.767875 16.4852C1.61867 19.196 4.25474 20.9537 6.64386 20.4069C9.03298 19.86 10.271 17.2195 9.42597 14.5165ZM16.3751 12.8916C18.9078 12.2568 20.1795 9.05578 19.2056 5.59733C18.2318 2.13888 15.3906 0.0428755 12.848 0.607696C10.3153 1.24244 9.04365 4.44347 10.0175 7.90193C10.993 11.2901 13.8317 13.5322 16.3751 12.8916ZM39.4623 10.6026C37.0731 10.1261 34.4371 11.8135 33.5863 14.5181C32.7355 17.2234 33.976 19.8592 36.3651 20.4061C38.7542 20.8826 41.3796 19.1952 42.2411 16.4906C43.0886 13.7822 41.7759 11.1494 39.4623 10.6026ZM26.6306 12.8916C29.1001 13.5263 32.0143 11.2901 32.9882 7.90193C33.962 4.51378 32.6908 1.24204 30.1577 0.607696C27.6881 -0.0270435 24.7739 2.20919 23.8001 5.59733C22.8238 8.98547 24.0954 12.2588 26.6306 12.8916Z" fill="#FFCB67"/>
</svg>
